<?xml version="1.0" encoding="UTF-8"?><svg id="a" xmlns="http://www.w3.org/2000/svg" viewBox="0 0 188.73 188.73"><path d="M13.46,3.23C3.86,28.15.9,60.56,0,79.26v16.28c4.69,0,9.22.7,13.48,1.99C3.87,122.46.9,154.91,0,173.63v15.1h10.49c-2.76-.62-5.61-1.01-8.53-1.13v-.39c0-4.98.85-9.76,2.4-14.23,9.47,4.49,16.85,9.94,22.56,15.75h1.09c-5.87-6.09-13.49-11.82-23.4-16.5,4.62-12.62,14.9-22.6,27.82-26.99l.11.35c5.3,13.22,8.62,28.72,10.71,43.14h.8c-2.09-14.5-5.43-30.1-10.77-43.4l-.1-.33c4.41-1.41,9.12-2.19,14-2.19s9.6.78,14.02,2.19l-.11.3c-5.34,13.31-8.68,28.92-10.78,43.43h.8c2.09-14.43,5.41-29.93,10.71-43.15l.12-.33c12.91,4.39,23.19,14.37,27.81,26.98-9.9,4.68-17.53,10.41-23.4,16.5h1.09c5.72-5.81,13.09-11.26,22.57-15.75,1.54,4.47,2.4,9.25,2.4,14.23v.39c-2.92.12-5.77.51-8.53,1.13h20.98c-2.76-.62-5.61-1.01-8.53-1.13v-.39c0-4.98.85-9.76,2.4-14.23,9.47,4.49,16.85,9.94,22.56,15.75h1.09c-5.87-6.09-13.49-11.82-23.4-16.5,4.62-12.62,14.9-22.6,27.82-26.99l.11.35c5.3,13.22,8.62,28.72,10.71,43.14h.8c-2.09-14.5-5.43-30.1-10.77-43.4l-.1-.33c4.41-1.41,9.11-2.19,14-2.19s9.59.77,14,2.19l-.09.31c-5.34,13.31-8.68,28.92-10.78,43.43h.8c2.09-14.43,5.41-29.93,10.72-43.17l.1-.32c12.92,4.39,23.2,14.37,27.82,26.99-9.9,4.68-17.53,10.41-23.4,16.5h1.09c5.72-5.81,13.09-11.26,22.57-15.75,1.55,4.47,2.4,9.25,2.4,14.23v.39c-2.92.12-5.77.51-8.53,1.13h10.49v-15.1c0,.17-.02.33-.02.5-.88-18.63-3.8-51.43-13.5-76.59,4.27-1.3,8.82-2,13.53-2h0v-16.28c0,.17-.02.33-.02.5-.87-18.61-3.8-51.38-13.48-76.53,4.27-1.34,8.8-2.06,13.5-2.06h0V0h-10.49c-14.48,3.27-26.48,13.16-32.63,26.31,2.78-8.19,7.66-17.64,16.2-26.31h-1.09c-9.9,10.27-14.81,21.56-17.23,30.6,1.39-8.41,4.05-19.17,9.06-30.6h-.84c-5.4,12.41-8.06,24.04-9.34,32.71.43-8.67,1.32-20.3,3.12-32.71h-.8c-1.84,12.74-2.72,24.62-3.13,33.36-.41-8.73-1.29-20.62-3.13-33.36h-.8c1.8,12.42,2.69,24.05,3.12,32.72-1.28-8.67-3.94-20.3-9.34-32.72h-.84c5.01,11.43,7.67,22.19,9.06,30.6-2.42-9.03-7.33-20.33-17.23-30.6h-1.09c8.54,8.67,13.41,18.11,16.2,26.3-6.16-13.15-18.15-23.03-32.63-26.3h-20.98c-14.48,3.27-26.48,13.16-32.63,26.31,2.78-8.19,7.66-17.64,16.2-26.31h-1.09c-9.9,10.27-14.81,21.56-17.23,30.6,1.39-8.41,4.05-19.17,9.06-30.6h-.84c-5.4,12.41-8.06,24.04-9.34,32.71.43-8.67,1.32-20.3,3.12-32.71h-.8c-1.84,12.74-2.72,24.62-3.13,33.36-.41-8.73-1.29-20.62-3.13-33.36h-.8c1.8,12.42,2.69,24.05,3.12,32.72-1.28-8.67-3.94-20.3-9.34-32.72h-.84c5.01,11.43,7.67,22.19,9.06,30.6-2.42-9.03-7.33-20.33-17.23-30.6h-1.09c8.54,8.67,13.41,18.11,16.2,26.3C36.96,13.15,24.97,3.27,10.49,0H0v1.18c4.69,0,9.21.72,13.46,2.05ZM14.21,3.48c6.3,2.09,11.98,5.53,16.72,9.97C10.21,36.34,3.16,62.85.79,79.12,1.7,60.43,4.68,28.23,14.21,3.48ZM45.22,46.4v.42c-18.97.75-35.11,12.3-42.02,28.47,4.14-14.1,14.3-32.85,39.07-44.92,1.9,4.99,2.95,10.39,2.95,16.04ZM52.09,30.37c24.6,12,34.79,30.61,38.98,44.67-6.97-16.04-23.04-27.48-41.92-28.23v-.42c0-5.64,1.05-11.04,2.94-16.03ZM139.59,46.4v.42c-18.9.75-34.99,12.21-41.94,28.28,4.17-14.07,14.35-32.71,39-44.73,1.9,4.99,2.94,10.39,2.94,16.03ZM146.45,30.38c24.5,11.96,34.7,30.46,38.91,44.5-7-15.96-23.04-27.32-41.85-28.07v-.42c0-5.64,1.05-11.04,2.94-16.02ZM157.01,108.15c19.79,21.77,27.09,46.87,29.76,63.2-3.84-14.5-13.95-34.75-40.35-47.49,2.33-5.96,5.97-11.31,10.59-15.71ZM145.06,121.01c4.31-13.83,14.57-31.85,38.82-43.53,1.87,4.79,2.9,9.97,2.9,15.38v.37c-18.7.74-34.64,11.97-41.72,27.77ZM42.3,123.84C15.87,136.57,5.75,156.84,1.92,171.35c2.67-16.33,9.97-41.45,29.78-63.23,4.62,4.4,8.27,9.74,10.61,15.71ZM1.96,93.23v-.37c0-5.41,1.03-10.6,2.9-15.38,24.24,11.67,34.5,29.68,38.81,43.51-7.07-15.79-23.02-27.02-41.71-27.76ZM47.18,49.13c4.64,0,9.11.68,13.32,1.94-9.56,24.82-12.45,56.96-13.32,75.27-.87-18.31-3.77-50.45-13.32-75.27,4.21-1.26,8.69-1.94,13.32-1.94ZM89.21,76.75c-26.2,12.6-36.26,32.54-40.09,46.83,2.66-16.06,9.9-40.7,29.46-62.15,4.59,4.28,8.24,9.49,10.63,15.32ZM48,125.69c.91-18.37,3.85-49.96,13.27-74.38,6.3,2,12,5.31,16.74,9.59-20.61,22.6-27.65,48.73-30.01,64.79ZM33.1,51.32c9.42,24.42,12.36,56.01,13.27,74.38-2.36-16.05-9.4-42.19-30.01-64.79,4.74-4.28,10.44-7.59,16.74-9.59ZM15.79,61.44c19.56,21.44,26.8,46.09,29.46,62.15-3.83-14.29-13.89-34.23-40.09-46.83,2.4-5.82,6.05-11.03,10.63-15.32ZM89.51,77.48c1.87,4.79,2.9,9.97,2.9,15.38v.37c-18.7.74-34.64,11.97-41.72,27.77,4.31-13.83,14.57-31.85,38.82-43.53ZM80.08,97.79c9.55,24.75,12.53,56.99,13.44,75.68-2.38-16.32-9.46-42.93-30.31-65.86,4.76-4.38,10.5-7.77,16.87-9.83ZM125.49,107.6c-20.87,22.94-27.96,49.57-30.33,65.89.91-18.7,3.89-50.95,13.45-75.7,6.38,2.05,12.12,5.44,16.89,9.82ZM94.34,174.13c-.88-18.63-3.8-51.43-13.5-76.59,4.27-1.3,8.82-2,13.53-2s9.22.7,13.48,1.99c-9.7,25.16-12.63,57.97-13.51,76.6ZM62.64,108.15c19.79,21.77,27.09,46.87,29.76,63.2-3.84-14.5-13.95-34.75-40.35-47.49,2.33-5.96,5.97-11.31,10.59-15.71ZM126.06,108.12c4.62,4.4,8.27,9.74,10.61,15.71-26.43,12.74-36.55,33.01-40.39,47.52,2.67-16.33,9.97-41.45,29.78-63.23ZM96.33,93.23v-.37c0-5.41,1.03-10.6,2.9-15.38,24.24,11.67,34.5,29.68,38.81,43.51-7.08-15.79-23.02-27.02-41.71-27.76ZM141.55,49.13c4.64,0,9.11.68,13.32,1.94-9.56,24.82-12.45,56.96-13.32,75.27-.87-18.31-3.77-50.45-13.32-75.27,4.21-1.26,8.69-1.94,13.32-1.94ZM183.58,76.75c-26.2,12.6-36.26,32.54-40.09,46.83,2.66-16.06,9.9-40.7,29.46-62.15,4.59,4.28,8.24,9.49,10.63,15.32ZM142.37,125.69c.91-18.37,3.85-49.96,13.27-74.38,6.3,2,12,5.31,16.74,9.59-20.61,22.6-27.65,48.73-30.01,64.79ZM127.46,51.32c9.42,24.42,12.36,56.01,13.27,74.38-2.36-16.05-9.4-42.19-30.01-64.79,4.74-4.28,10.44-7.59,16.74-9.59ZM110.15,61.44c19.56,21.44,26.8,46.09,29.46,62.15-3.83-14.29-13.89-34.23-40.09-46.83,2.4-5.82,6.05-11.03,10.63-15.32ZM14.24,97.78c6.38,2.05,12.12,5.44,16.89,9.82C10.25,130.53,3.17,157.16.79,173.48c.91-18.7,3.89-50.95,13.45-75.7ZM3.5,168.7c4.34-14.04,14.66-32.33,39.09-44.12,1.7,4.6,2.64,9.55,2.64,14.7v1.22c-18.71.75-34.66,12.16-41.73,28.2ZM49.14,140.5v-1.22c0-5.15.93-10.09,2.63-14.68,24.2,11.7,34.55,29.77,38.94,43.76-7.14-15.86-23-27.11-41.57-27.86ZM97.86,168.7c4.34-14.04,14.66-32.33,39.09-44.12,1.7,4.6,2.64,9.55,2.64,14.7v1.22c-18.71.75-34.66,12.16-41.73,28.2ZM143.51,140.5v-1.22c0-5.15.93-10.09,2.63-14.68,24.2,11.7,34.55,29.77,38.94,43.76-7.14-15.86-23-27.11-41.57-27.86ZM187.89,173.48c-2.38-16.32-9.46-42.93-30.31-65.86,4.76-4.38,10.5-7.77,16.87-9.83,9.55,24.75,12.53,56.99,13.44,75.68ZM187.89,79.11c-2.37-16.26-9.42-42.75-30.11-65.63,4.73-4.45,10.41-7.89,16.7-9.98,9.53,24.75,12.5,56.94,13.42,75.62ZM157.22,14.01c19.63,21.71,26.89,46.7,29.55,62.97-3.82-14.44-13.87-34.59-40.03-47.33,2.38-5.93,5.97-11.25,10.48-15.63ZM136.36,29.64c-26.18,12.75-36.24,32.92-40.05,47.36,2.66-16.27,9.91-41.27,29.57-63,4.51,4.39,8.11,9.7,10.49,15.64ZM95.18,79.11c.91-18.68,3.88-50.88,13.42-75.62,6.29,2.09,11.98,5.53,16.71,9.98-20.7,22.88-27.76,49.38-30.12,65.65ZM107.85,3.23c-9.68,25.15-12.61,57.92-13.48,76.53-.87-18.61-3.8-51.38-13.48-76.53,4.26-1.33,8.79-2.05,13.48-2.05s9.22.72,13.48,2.05ZM93.55,79.12c-2.37-16.27-9.42-42.76-30.13-65.65,4.73-4.45,10.41-7.89,16.71-9.98,9.54,24.75,12.51,56.95,13.42,75.63ZM62.86,14c19.64,21.72,26.9,46.71,29.56,62.98-3.82-14.44-13.88-34.6-40.05-47.34,2.38-5.93,5.97-11.25,10.48-15.64ZM41.99,29.63C15.79,42.38,5.73,62.55,1.91,77c2.66-16.27,9.92-41.27,29.58-63.01,4.51,4.39,8.11,9.7,10.49,15.64Z" style="fill:#334646; stroke-width:0px;"/></svg>