<?xml version="1.0" encoding="UTF-8"?><svg id="b" xmlns="http://www.w3.org/2000/svg" viewBox="0 0 50 50"><path d="M19.51,20.73c-2.68,0-4.98-.96-6.89-2.87-1.91-1.91-2.87-4.21-2.87-6.89s.96-4.98,2.87-6.89c1.91-1.91,4.21-2.87,6.89-2.87s4.98.96,6.89,2.87c1.91,1.91,2.87,4.21,2.87,6.89s-.96,4.98-2.87,6.89c-1.91,1.91-4.21,2.87-6.89,2.87ZM19.51,15.85c1.34,0,2.49-.48,3.45-1.43.96-.96,1.43-2.1,1.43-3.45s-.48-2.49-1.43-3.45c-.96-.96-2.1-1.43-3.45-1.43s-2.49.48-3.45,1.43c-.96.96-1.43,2.1-1.43,3.45s.48,2.49,1.43,3.45c.96.96,2.1,1.43,3.45,1.43ZM46.59,48.78l-7.8-7.8c-.85.49-1.77.89-2.74,1.22-.98.33-2.01.49-3.11.49-3.05,0-5.64-1.07-7.77-3.2-2.13-2.13-3.2-4.73-3.2-7.77s1.07-5.64,3.2-7.77c2.13-2.13,4.73-3.2,7.77-3.2s5.64,1.07,7.77,3.2c2.13,2.13,3.2,4.73,3.2,7.77,0,1.1-.16,2.13-.49,3.11-.33.98-.73,1.89-1.22,2.74l7.8,7.8-3.41,3.41ZM32.93,37.8c1.71,0,3.15-.59,4.33-1.77,1.18-1.18,1.77-2.62,1.77-4.33s-.59-3.15-1.77-4.33-2.62-1.77-4.33-1.77-3.15.59-4.33,1.77c-1.18,1.18-1.77,2.62-1.77,4.33s.59,3.15,1.77,4.33c1.18,1.18,2.62,1.77,4.33,1.77ZM0,40.24v-6.77c0-1.38.35-2.66,1.04-3.84.69-1.18,1.65-2.07,2.87-2.68,2.07-1.06,4.41-1.95,7.01-2.68,2.6-.73,5.49-1.1,8.66-1.1-.49.73-.9,1.51-1.25,2.35-.35.83-.62,1.7-.82,2.59-2.44.2-4.61.62-6.52,1.25-1.91.63-3.52,1.29-4.82,1.98-.41.2-.72.5-.95.88-.22.39-.34.8-.34,1.25v1.89h12.62c.2.89.48,1.75.82,2.56.35.81.76,1.59,1.25,2.32H0Z" style="fill:#334646; stroke-width:0px;"/></svg>