<?xml version="1.0" encoding="UTF-8"?><svg id="h" xmlns="http://www.w3.org/2000/svg" viewBox="0 0 50 50"><path d="M9.62,37.75c2.12-1.63,4.5-2.9,7.12-3.84,2.63-.94,5.38-1.4,8.25-1.4s5.62.47,8.25,1.4c2.63.93,5,2.21,7.12,3.84,1.46-1.71,2.6-3.65,3.41-5.81.81-2.16,1.22-4.47,1.22-6.94,0-5.54-1.95-10.26-5.84-14.15-3.89-3.89-8.61-5.85-14.16-5.85s-10.26,1.95-14.16,5.85c-3.9,3.9-5.84,8.61-5.84,14.15,0,2.46.41,4.77,1.22,6.94.81,2.16,1.95,4.1,3.41,5.81h-.02ZM25,27.5c-2.46,0-4.53-.85-6.22-2.53-1.7-1.68-2.53-3.76-2.53-6.22s.84-4.52,2.53-6.22c1.69-1.7,3.76-2.53,6.22-2.53s4.53.85,6.22,2.53c1.7,1.67,2.53,3.76,2.53,6.22s-.84,4.53-2.53,6.22c-1.69,1.7-3.76,2.53-6.22,2.53ZM25,50c-3.46,0-6.71-.65-9.75-1.96-3.04-1.31-5.69-3.1-7.94-5.35-2.25-2.25-4.04-4.9-5.34-7.94-1.3-3.04-1.98-6.29-1.98-9.75s.65-6.71,1.98-9.75c1.33-3.04,3.09-5.69,5.34-7.94,2.25-2.25,4.9-4.04,7.94-5.35,3.04-1.31,6.29-1.96,9.75-1.96s6.71.65,9.75,1.96c3.04,1.31,5.69,3.1,7.94,5.35,2.25,2.25,4.04,4.9,5.34,7.94,1.3,3.04,1.98,6.29,1.98,9.75s-.65,6.71-1.98,9.75c-1.32,3.04-3.09,5.69-5.34,7.94-2.25,2.25-4.9,4.04-7.94,5.35-3.04,1.31-6.29,1.96-9.75,1.96ZM25,45c2.21,0,4.29-.32,6.25-.96,1.96-.64,3.75-1.57,5.37-2.79-1.62-1.21-3.41-2.14-5.37-2.79s-4.04-.96-6.25-.96-4.29.33-6.25.96c-1.96.65-3.75,1.57-5.38,2.79,1.63,1.21,3.41,2.14,5.38,2.79s4.04.96,6.25.96ZM25,22.5c1.09,0,1.97-.35,2.69-1.06s1.06-1.6,1.06-2.69-.35-1.97-1.06-2.69c-.71-.71-1.6-1.06-2.69-1.06s-1.97.35-2.69,1.06c-.71.71-1.06,1.6-1.06,2.69s.35,1.97,1.06,2.69,1.6,1.06,2.69,1.06Z" style="fill:#334646; stroke-width:0px;"/></svg>