<?xml version="1.0" encoding="UTF-8"?><svg id="c" xmlns="http://www.w3.org/2000/svg" viewBox="0 0 50 50"><path d="M37.5,32.5c-1.75,0-3.23-.6-4.44-1.81-1.21-1.21-1.81-2.69-1.81-4.44s.6-3.23,1.81-4.44c1.21-1.21,2.69-1.81,4.44-1.81s3.23.6,4.44,1.81c1.21,1.21,1.81,2.69,1.81,4.44s-.6,3.23-1.81,4.44c-1.21,1.21-2.69,1.81-4.44,1.81ZM25,45v-3.5c0-1,.26-1.93.78-2.78s1.26-1.47,2.22-1.84c1.5-.62,3.05-1.09,4.66-1.41s3.22-.47,4.84-.47,3.24.16,4.84.47,3.16.78,4.66,1.41c.96.37,1.7.99,2.22,1.84s.78,1.78.78,2.78v3.5h-25ZM20,25c-2.75,0-5.1-.98-7.06-2.94-1.96-1.96-2.94-4.31-2.94-7.06s.98-5.1,2.94-7.06c1.96-1.96,4.31-2.94,7.06-2.94s5.1.98,7.06,2.94c1.96,1.96,2.94,4.31,2.94,7.06s-.98,5.1-2.94,7.06-4.31,2.94-7.06,2.94ZM0,45v-7c0-1.42.35-2.72,1.06-3.91.71-1.19,1.69-2.09,2.94-2.72,2.5-1.25,5.09-2.21,7.78-2.88,2.69-.67,5.43-1,8.22-1,1.46,0,2.92.13,4.37.37,1.46.25,2.92.54,4.38.88l-2.13,2.13-2.12,2.12c-.75-.21-1.5-.34-2.25-.41-.75-.06-1.5-.09-2.25-.09-2.42,0-4.78.29-7.09.88-2.31.58-4.53,1.42-6.66,2.5-.42.21-.73.5-.94.87-.21.38-.31.79-.31,1.25v2h15v5H0ZM20,20c1.38,0,2.55-.49,3.53-1.47.98-.98,1.47-2.16,1.47-3.53s-.49-2.55-1.47-3.53c-.98-.98-2.16-1.47-3.53-1.47s-2.55.49-3.53,1.47c-.98.98-1.47,2.16-1.47,3.53s.49,2.55,1.47,3.53c.98.98,2.16,1.47,3.53,1.47Z" style="fill:#334646; stroke-width:0px;"/></svg>