<?xml version="1.0" encoding="UTF-8"?><svg id="p" xmlns="http://www.w3.org/2000/svg" viewBox="0 0 460.73 166.47"><path d="M10,143.81c7.23-.34,14.46-.69,21.69-.97,7.23-.31,14.46-.58,21.69-.84l10.85-.4c3.62-.14,7.23.01,10.85,0h108.46c1.22,0,2.2.99,2.2,2.2s-.99,2.2-2.2,2.2h-108.46c-3.62-.01-7.23.14-10.85,0l-10.85-.4c-7.23-.26-14.46-.52-21.69-.84-7.23-.28-14.46-.63-21.69-.97Z" style="fill:#334646; stroke-width:0px;"/><path d="M277.19,141.61h108.46c3.62.02,7.23-.14,10.85.03l10.85.4c7.23.26,14.46.53,21.69.83,7.23.28,14.46.62,21.69.95-7.23.32-14.46.67-21.69.95-7.23.3-14.46.57-21.69.83l-10.85.4c-3.62.17-7.23.01-10.85.03h-108.46c-1.22,0-2.2-.99-2.2-2.2s.99-2.2,2.2-2.2Z" style="fill:#334646; stroke-width:0px;"/><path d="M203.61,146.26h-1.21v3.77h-1.31v-12.3h2.52c3.85,0,5.77,1.75,5.77,4.26s-1.94,4.26-5.77,4.26ZM203.91,138.82h-1.49v6.37h1.49c2.68,0,4.19-1.19,4.19-3.19s-1.51-3.17-4.19-3.17Z" style="fill:#334646; stroke-width:0px;"/><path d="M223.21,150.03l-1.27-2.8h-6.61l-1.25,2.8h-1.43l5.83-12.52h.28l5.83,12.52h-1.39ZM215.77,146.18h5.71l-2.86-6.27-2.86,6.27Z" style="fill:#334646; stroke-width:0px;"/><path d="M232.51,144.57h-1.15v5.46h-1.31v-12.3h2.58c2.74,0,4.44,1.19,4.44,3.39,0,1.71-1.17,2.74-2.74,2.98,1.98.63,2.84,4.96,5.5,4.92l-.26,1.11c-3.85,0-3.97-5.55-7.06-5.55ZM232.75,138.78h-1.39v4.76h1.27c1.98,0,3.15-.79,3.15-2.38s-1.13-2.38-3.03-2.38Z" style="fill:#334646; stroke-width:0px;"/><path d="M244.98,137.73h1.31v12.3h-1.31v-12.3Z" style="fill:#334646; stroke-width:0px;"/><path d="M259.58,139.75c-.85-.63-1.94-1.07-3.07-1.07-1.19,0-2.58.48-2.58,1.88,0,3.05,6.51,1.73,6.51,6.15,0,2.06-1.65,3.53-4.15,3.53-1.37,0-2.74-.34-4.15-1.35l.56-.99c1.15.81,2.46,1.23,3.57,1.23,1.84,0,2.88-1.03,2.88-2.42,0-3.47-6.53-2.1-6.53-6.13,0-1.92,1.63-3.04,3.83-3.04,1.33,0,2.46.46,3.21,1.01-.02.4-.06.79-.08,1.19Z" style="fill:#334646; stroke-width:0px;"/><path d="M83.39,113.67h-5.73v-49.8h-15.78l1.23-4.85h35.61v4.85h-15.34v49.8Z" style="fill:#334646; stroke-width:0px;"/><path d="M133.36,94.54c0-9.26-2.73-13.75-10.05-13.75-5.47,0-12.69,4.14-12.69,14.63v18.25h-5.29v-54.21l5.29-1.06v26.09c2.73-6.26,9.26-8.29,13.75-8.29,10.31,0,14.37,6.61,14.37,18.25v19.22h-5.38v-19.13Z" style="fill:#334646; stroke-width:0px;"/><path d="M165.71,109.7c4.85,0,8.02-1.67,10.67-3.79l2.73,3.97c-4.67,3.44-8.46,4.5-13.4,4.5-12.08,0-19.3-7.32-19.3-19.13s7.58-19.04,17.54-19.04c9.34,0,15.78,6.08,16.4,15.43.09,1.67.09,3.7,0,4.41h-28.65c0,8.81,5.64,13.66,14.02,13.66ZM151.96,91.81h23.62c-.35-7.49-5.29-11.19-11.55-11.19s-10.93,3.97-12.08,11.19ZM164.74,60.95l6.08,1.23-5.73,8.9h-4.5l4.14-10.14Z" style="fill:#334646; stroke-width:0px;"/><path d="M205.99,113.67h-5.73v-49.8h-15.78l1.23-4.85h35.61v4.85h-15.34v49.8Z" style="fill:#334646; stroke-width:0px;"/><path d="M231.11,68.8c-1.94,0-3.44-1.23-3.44-3.26s1.5-3.09,3.44-3.09,3.44,1.15,3.44,3.17-1.5,3.17-3.44,3.17ZM228.47,76.82h5.29v36.85h-5.29v-36.85Z" style="fill:#334646; stroke-width:0px;"/><path d="M279.77,95.16c0,10.67-6.61,19.13-17.81,19.13-6.08,0-10.84-2.38-12.78-3.79v15.87l-5.2,1.15v-50.69h5.2v8.46c2.64-6.61,8.82-9.08,13.84-9.08,11.11,0,16.75,8.2,16.75,18.95ZM262.41,80.96c-5.73,0-13.22,4.41-13.22,17.1v7.14c2.38,1.94,6.52,4.32,12.17,4.32,8.46,0,13.05-6.44,13.05-14.54s-3.79-14.02-11.99-14.02Z" style="fill:#334646; stroke-width:0px;"/><path d="M305.42,113.67h-5.73v-49.8h-15.78l1.23-4.85h35.61v4.85h-15.34v49.8Z" style="fill:#334646; stroke-width:0px;"/><path d="M333.63,114.37c-10.49,0-18.95-6.79-18.95-19.04s8.46-19.13,18.95-19.13,18.95,6.88,18.95,19.22-8.37,18.95-18.95,18.95ZM333.54,80.96c-7.49,0-13.58,5.11-13.58,14.37s6.08,14.37,13.58,14.37,13.66-5.02,13.66-14.28-5.99-14.46-13.66-14.46Z" style="fill:#334646; stroke-width:0px;"/><path d="M396.47,95.16c0,10.67-6.61,19.13-17.81,19.13-6.08,0-10.84-2.38-12.78-3.79v15.87l-5.2,1.15v-50.69h5.2v8.46c2.64-6.61,8.82-9.08,13.84-9.08,11.11,0,16.75,8.2,16.75,18.95ZM379.11,80.96c-5.73,0-13.22,4.41-13.22,17.1v7.14c2.38,1.94,6.52,4.32,12.17,4.32,8.46,0,13.05-6.44,13.05-14.54s-3.79-14.02-11.99-14.02Z" style="fill:#334646; stroke-width:0px;"/><path d="M10,39.14c16.07-.3,32.14-.5,48.2-.74,8.03-.18,16.07-.06,24.1-.09h120.51c.46,0,.83.37.83.83s-.37.83-.83.83h-120.51c-8.03-.03-16.07.1-24.1-.09-16.07-.24-32.14-.43-48.2-.74Z" style="fill:#334646; stroke-width:0px;"/><path d="M257.91,38.31h132.56c4.02-.03,8.03.04,12.05.1,16.07.24,32.14.44,48.2.73-16.07.29-32.14.49-48.2.73-4.02.06-8.03.13-12.05.11h-12.05s-24.1-.01-24.1-.01h-96.41c-.46,0-.83-.37-.83-.83s.37-.83.83-.83Z" style="fill:#334646; stroke-width:0px;"/><path d="M208.33,10.04c13,6,.51,34.28,26.7,37.14-1.11-10.59-3.18-23.83-13.63-28.04,10.26,2.08,15.21,16.61,16.65,28.01,13.09-11.54,3.58-38.35-29.73-37.11Z" style="fill:#334646; stroke-width:0px;"/></svg>