<?xml version="1.0" encoding="UTF-8"?><svg id="f" xmlns="http://www.w3.org/2000/svg" viewBox="0 0 50 50"><path d="M18.16,49.88l-1-7.96c-.54-.21-1.05-.46-1.52-.75-.48-.29-.94-.6-1.4-.93l-7.4,3.11L0,31.53l6.41-4.85c-.04-.29-.06-.57-.06-.84v-1.68c0-.27.02-.55.06-.84L0,18.47,6.84,6.65l7.4,3.11c.46-.33.93-.64,1.43-.93.5-.29.99-.54,1.49-.75L18.16.12h13.68l1,7.96c.54.21,1.05.46,1.52.75.48.29.94.6,1.4.93l7.4-3.11,6.84,11.82-6.41,4.85c.04.29.06.57.06.84v1.68c0,.27-.04.55-.12.84l6.41,4.85-6.84,11.82-7.34-3.11c-.46.33-.93.64-1.43.93s-.99.54-1.49.75l-1,7.96h-13.68ZM22.51,44.9h4.91l.87-6.59c1.29-.33,2.48-.82,3.58-1.46,1.1-.64,2.1-1.42,3.02-2.33l6.16,2.55,2.43-4.23-5.35-4.04c.21-.58.35-1.19.44-1.83.08-.64.12-1.3.12-1.96s-.04-1.32-.12-1.96c-.08-.64-.23-1.25-.44-1.83l5.35-4.04-2.43-4.23-6.16,2.61c-.91-.95-1.92-1.75-3.02-2.39-1.1-.64-2.29-1.13-3.58-1.46l-.81-6.59h-4.91l-.87,6.59c-1.29.33-2.48.82-3.58,1.46-1.1.64-2.1,1.42-3.02,2.33l-6.16-2.55-2.43,4.23,5.35,3.98c-.21.62-.35,1.24-.44,1.87-.08.62-.12,1.29-.12,1.99,0,.66.04,1.31.12,1.93.08.62.23,1.24.44,1.87l-5.35,4.04,2.43,4.23,6.16-2.61c.91.95,1.92,1.75,3.02,2.39,1.1.64,2.29,1.13,3.58,1.46l.81,6.59ZM25.12,33.71c2.4,0,4.46-.85,6.16-2.55,1.7-1.7,2.55-3.75,2.55-6.16s-.85-4.46-2.55-6.16c-1.7-1.7-3.75-2.55-6.16-2.55s-4.51.85-6.19,2.55c-1.68,1.7-2.52,3.75-2.52,6.16s.84,4.46,2.52,6.16c1.68,1.7,3.74,2.55,6.19,2.55Z" style="fill:#334646; stroke-width:0px;"/></svg>