<?xml version="1.0" encoding="UTF-8"?><svg id="i" xmlns="http://www.w3.org/2000/svg" viewBox="0 0 50 50"><rect x="-.31" width="25.62" height="5" style="fill:#334646; stroke-width:0px;"/><rect x="-.31" y="45" width="36.54" height="5" style="fill:#334646; stroke-width:0px;"/><path d="M30,13.76c4.13,0,7.49,3.36,7.49,7.49s-3.36,7.49-7.49,7.49-7.49-3.36-7.49-7.49,3.36-7.49,7.49-7.49M30,8.76c-6.9,0-12.49,5.59-12.49,12.49s5.59,12.49,12.49,12.49,12.49-5.59,12.49-12.49-5.59-12.49-12.49-12.49h0Z" style="fill:#334646; stroke-width:0px;"/><rect x="33.95" y="31.26" width="16.23" height="5" transform="translate(36.19 -19.85) rotate(45)" style="fill:#334646; stroke-width:0px;"/><rect x="-.31" y="11.25" width="15.47" height="5" style="fill:#334646; stroke-width:0px;"/><rect x="-.31" y="22.5" width="13.31" height="5" style="fill:#334646; stroke-width:0px;"/><rect x="-.31" y="33.75" width="19" height="5" style="fill:#334646; stroke-width:0px;"/></svg>