<svg aria-roledescription="architecture" role="graphics-document document" viewBox="-2178.265380859375 -389.01788330078125 4446.53125 909.0357666015625" style="max-width: 4446.53125px;" xmlns:xlink="http://www.w3.org/1999/xlink" xmlns="http://www.w3.org/2000/svg" width="100%" id="mermaid-1732538670844"><style>#mermaid-1732538670844{font-family:"trebuchet ms",verdana,arial,sans-serif;font-size:16px;fill:#ccc;}#mermaid-1732538670844 .error-icon{fill:#a44141;}#mermaid-1732538670844 .error-text{fill:#ddd;stroke:#ddd;}#mermaid-1732538670844 .edge-thickness-normal{stroke-width:1px;}#mermaid-1732538670844 .edge-thickness-thick{stroke-width:3.5px;}#mermaid-1732538670844 .edge-pattern-solid{stroke-dasharray:0;}#mermaid-1732538670844 .edge-thickness-invisible{stroke-width:0;fill:none;}#mermaid-1732538670844 .edge-pattern-dashed{stroke-dasharray:3;}#mermaid-1732538670844 .edge-pattern-dotted{stroke-dasharray:2;}#mermaid-1732538670844 .marker{fill:lightgrey;stroke:lightgrey;}#mermaid-1732538670844 .marker.cross{stroke:lightgrey;}#mermaid-1732538670844 svg{font-family:"trebuchet ms",verdana,arial,sans-serif;font-size:16px;}#mermaid-1732538670844 p{margin:0;}#mermaid-1732538670844 .edge{stroke-width:3;stroke:lightgrey;fill:none;}#mermaid-1732538670844 .arrow{fill:lightgrey;}#mermaid-1732538670844 .node-bkg{fill:none;stroke:#cccccc;stroke-width:2px;stroke-dasharray:8;}#mermaid-1732538670844 .node-icon-text{display:flex;align-items:center;}#mermaid-1732538670844 .node-icon-text&gt;div{color:#fff;margin:1px;height:fit-content;text-align:center;overflow:hidden;display:-webkit-box;-webkit-box-orient:vertical;}#mermaid-1732538670844 :root{--mermaid-font-family:"trebuchet ms",verdana,arial,sans-serif;}</style><g></g><g class="architecture-edges"><g><path class="edge" d="M -2098.2653341743644,136.01789539879064 L -2098.2653341743644,-2.9999999999997726 L-2098.2653341743644,-102.01789539879019"></path></g><g><path class="edge" d="M -2098.2653341743644,136.01789539879064 L -2098.2653341743644,196.01789539879064 L-2098.2653341743644,216.01789539879064"></path></g><g><path class="edge" d="M -2098.2653341743644,136.01789539879064 L -1910.6378784663389,136.01789539879064 L-1763.010422758313,136.01789539879064"></path></g><g><path class="edge" d="M -1683.010422758313,136.01789539879064 L -1621.3790668096494,136.01789539879064 L-1559.7477108609858,136.01789539879064"></path></g><g><path class="edge" d="M -1479.7477108609855,136.01789539879064 L -228.9532300488596,136.01789539879064 L1021.8412507632663,136.01789539879064"></path></g><g><path class="edge" d="M 1141.8412507632665,136.01789539879064 L 1121.8412507632665,136.01789539879064 L1101.8412507632665,136.01789539879064"></path></g><g><path class="edge" d="M 1263.9045412188852,136.01789539879064 L 1242.872895991076,136.01789539879064 L1221.8412507632665,136.01789539879064"></path></g><g><path class="edge" d="M 1343.9045412188852,136.01789539879064 L 1373.9974963282305,136.01789539879064 L1444.0904514375757,136.01789539879064"></path></g><g><path class="edge" d="M 1444.0904514375757,-102.01789539879019 L 1444.0904514375757,-2.9999999999997726 L1444.0904514375757,136.01789539879064"></path></g><g><path class="edge" d="M 1444.0904514375757,216.01789539879064 L 1444.0904514375757,196.01789539879064 L1444.0904514375757,136.01789539879064"></path></g><g><path class="edge" d="M 1444.0904514375757,136.01789539879064 L 1646.6103447039416,136.01789539879064 L1849.1302379703075,136.01789539879064"></path></g><g><path class="edge" d="M 1849.1302379703075,-102.01789539879019 L 1849.1302379703075,-2.9999999999997726 L1849.1302379703075,136.01789539879064"></path></g><g><path class="edge" d="M 1849.1302379703075,216.01789539879064 L 1849.1302379703075,196.01789539879064 L1849.1302379703075,136.01789539879064"></path></g><g><path class="edge" d="M 1849.1302379703075,136.01789539879064 L 1955.947786072336,136.01789539879064 L2022.7653341743644,136.01789539879064"></path></g></g><g class="architecture-services"><g transform="translate(-2138.2653341743644,-182.0178953987902)" class="architecture-service"><g transform="translate(40, 80)" text-anchor="middle" dominant-baseline="middle" alignment-baseline="middle" dy="1em"><g><rect style="stroke: none" class="background"></rect><text style="" y="-10.1"><tspan dy="1.1em" y="-0.1em" x="0" class="text-outer-tspan"><tspan font-weight="normal" class="text-inner-tspan" font-style="normal">LAPTOP</tspan></tspan></text></g></g><g><g><svg viewBox="0 0 24 24" height="80" width="80" xmlns="http://www.w3.org/2000/svg"><path d="M4 7a2 2 0 0 1 2-2h12a2 2 0 0 1 2 2v9H4zM2 19h20" stroke-width="2" stroke-linejoin="round" stroke-linecap="round" stroke="currentColor" fill="none"></path></svg></g></g></g><g transform="translate(-2138.2653341743644,216.01789539879064)" class="architecture-service"><g transform="translate(40, 80)" text-anchor="middle" dominant-baseline="middle" alignment-baseline="middle" dy="1em"><g><rect style="stroke: none" class="background"></rect><text style="" y="-10.1"><tspan dy="1.1em" y="-0.1em" x="0" class="text-outer-tspan"><tspan font-weight="normal" class="text-inner-tspan" font-style="normal">DESKTOP</tspan></tspan></text></g></g><g><g><svg viewBox="0 0 24 24" height="80" width="80" xmlns="http://www.w3.org/2000/svg"><path d="M2 6a2 2 0 0 1 2-2h16a2 2 0 0 1 2 2v9a2 2 0 0 1-2 2H4a2 2 0 0 1-2-2zm6 14h8" stroke-width="2" stroke-linejoin="round" stroke-linecap="round" stroke="currentColor" fill="none"></path></svg></g></g></g><g transform="translate(-1763.010422758313,96.01789539879064)" class="architecture-service"><g transform="translate(40, 80)" text-anchor="middle" dominant-baseline="middle" alignment-baseline="middle" dy="1em"><g><rect style="stroke: none" class="background"></rect><text style="" y="-10.1"><tspan dy="1.1em" y="-0.1em" x="0" class="text-outer-tspan"><tspan font-weight="normal" class="text-inner-tspan" font-style="normal">Git</tspan></tspan></text></g></g><g><g><svg viewBox="0 0 80 80" height="80" width="80" xmlns="http://www.w3.org/2000/svg"><g><rect style="fill: #087ebf; stroke-width: 0px;" height="80" width="80"></rect><text style="fill: #fff; font-family: ArialMT, Arial; font-size: 67.75px;" transform="translate(21.16 64.67)"><tspan y="0" x="0">?</tspan></text></g></svg></g></g></g><g transform="translate(-1559.7477108609858,96.01789539879064)" class="architecture-service"><g transform="translate(40, 80)" text-anchor="middle" dominant-baseline="middle" alignment-baseline="middle" dy="1em"><g><rect style="stroke: none" class="background"></rect><text style="" y="-10.1"><tspan dy="1.1em" y="-0.1em" x="0" class="text-outer-tspan"><tspan font-weight="normal" class="text-inner-tspan" font-style="normal">Github</tspan><tspan font-weight="normal" class="text-inner-tspan" font-style="normal"> Actions</tspan></tspan></text></g></g><g><g><svg viewBox="0 0 256 256" height="80" width="80" xmlns="http://www.w3.org/2000/svg"><g fill="none"><rect rx="60" fill="#242938" height="256" width="256"></rect><path clip-rule="evenodd" d="M76.065 43c18.262 0 33.065 14.803 33.065 33.065S94.327 109.13 76.065 109.13S43 94.327 43 76.065S57.803 43 76.065 43m47.761 66.13c12.174 0 22.044 9.87 22.044 22.044s-9.87 22.043-22.044 22.043s-22.043-9.869-22.043-22.043s9.869-22.044 22.043-22.044m0 58.783c12.174 0 22.044 9.869 22.044 22.044c0 12.174-9.87 22.043-22.044 22.043s-22.043-9.869-22.043-22.043c0-12.175 9.869-22.044 22.043-22.044" stroke-width="7.348" stroke-linejoin="round" stroke-linecap="round" stroke="#2088FF"></path><path clip-rule="evenodd" d="M189.957 167.913c12.174 0 22.043 9.869 22.043 22.044c0 12.174-9.869 22.043-22.043 22.043c-12.175 0-22.044-9.869-22.044-22.043c0-12.175 9.869-22.044 22.044-22.044" stroke-width="7.348" stroke-linejoin="round" stroke-linecap="round" stroke="#79B8FF"></path><path d="m131.308 126.056l-11.276 11.261l-5.477-5.458" stroke-width="7.348" stroke-linejoin="round" stroke-linecap="round" stroke="#2088FF"></path><path clip-rule="evenodd" d="M189.957 109.13c12.174 0 22.043 9.87 22.043 22.044s-9.869 22.043-22.043 22.043c-12.175 0-22.044-9.869-22.044-22.043s9.869-22.044 22.044-22.044" stroke-width="7.348" stroke-linejoin="round" stroke-linecap="round" stroke="#2088FF"></path><path d="m197.438 126.056l-11.276 11.261l-5.476-5.458M65.043 64.353c0-2.891 3.186-4.65 5.633-3.108L89.46 73.078c2.297 1.447 2.285 4.8-.022 6.231L70.653 90.957c-2.447 1.518-5.61-.242-5.61-3.122zm7.348 44.777v55.109c0 14.203 11.673 25.717 25.718 25.717h3.674" stroke-width="7.348" stroke-linejoin="round" stroke-linecap="round" stroke="#2088FF"></path><path d="M101.595 134.847a3.673 3.673 0 1 0 0-7.347zm-32.878-25.588c0 14.132 11.457 25.588 25.588 25.588V127.5c-10.074 0-18.24-8.167-18.24-18.241zm25.588 25.588h7.29V127.5h-7.29z" fill="#2088FF"></path><path d="M146.071 131.174h21.84" stroke-width="7.348" stroke-linejoin="round" stroke-linecap="round" stroke="#2088FF"></path><path clip-rule="evenodd" d="M116.478 186.283a3.674 3.674 0 1 1 0 7.348a3.674 3.674 0 0 1 0-7.348m14.696 0a3.675 3.675 0 1 1-3.674 3.674a3.676 3.676 0 0 1 3.674-3.674" fill-rule="evenodd" fill="#79B8FF"></path><path d="m164.257 189.981l-3.72.122" stroke-width="7.348" stroke-linecap="round" stroke="#79B8FF"></path></g></svg></g></g></g><g transform="translate(1021.8412507632665,96.01789539879064)" class="architecture-service"><g transform="translate(40, 80)" text-anchor="middle" dominant-baseline="middle" alignment-baseline="middle" dy="1em"><g><rect style="stroke: none" class="background"></rect><text style="" y="-10.1"><tspan dy="1.1em" y="-0.1em" x="0" class="text-outer-tspan"><tspan font-weight="normal" class="text-inner-tspan" font-style="normal">Route53</tspan></tspan></text></g></g><g><g><svg viewBox="0 0 256 256" height="80" width="80" xmlns="http://www.w3.org/2000/svg"><defs><linearGradient y2="0%" y1="100%" x2="100%" x1="0%" id="IconifyId193635a1cb6760dde0"><stop stop-color="#4D27A8" offset="0%"></stop><stop stop-color="#A166FF" offset="100%"></stop></linearGradient></defs><path d="M0 0h256v256H0z" fill="url(#IconifyId193635a1cb6760dde0)"></path><path d="M155.814 130.174q3.549 3.279 3.55 8.794q0 6.003-4.318 9.585q-4.32 3.586-11.603 3.585q-5.756-.002-11.392-2.452v-4.901q6.676 2.207 11.392 2.205q4.655 0 7.165-2.08q2.51-2.085 2.509-5.942c0-4.942-3.12-7.414-9.37-7.414q-2.937.001-5.817.304v-4.04l12.864-14.03h-18.128v-5.023h24.924v4.84l-12.617 13.355c.208-.041.406-.06.614-.06h.611q6.066 0 9.616 3.274m-35.577-1.069q3.73 3.492 3.731 9.614c0 4.004-1.446 7.24-4.349 9.712c-2.899 2.471-6.713 3.707-11.45 3.707q-6.241-.002-11.695-2.452v-4.901q6.796 2.207 11.635 2.205c3.104 0 5.481-.7 7.133-2.112c1.654-1.409 2.483-3.438 2.483-6.095q-.001-4.35-2.33-6.31q-2.328-1.96-7.593-1.962c-2.532 0-5.693.208-9.492.614v-4.043l1.165-18.317h22.352v5.022h-17.21l-.796 12.437q3.368-.61 6.06-.611q6.616-.001 10.356 3.492m46.025 44.904c-15.532 2.791-29.136 9.117-38.262 14.27c-9.13-5.153-22.733-11.479-38.262-14.27c-4.372-.784-26.157-5.333-26.157-17.927c0-5.836 2.09-9.706 6.102-16.618c4.794-8.265 10.759-18.554 10.759-33.366c0-10.586-2.775-20.738-8.253-30.21c.643-.794 1.299-1.597 1.958-2.407c8.115 4.056 16.563 6.11 25.152 6.11c10.496 0 20.141-2.755 28.701-8.194c8.557 5.439 18.202 8.195 28.698 8.195c8.588 0 17.04-2.055 25.155-6.111c.656.81 1.312 1.613 1.955 2.407c-5.478 9.472-8.253 19.624-8.253 30.21c0 14.812 5.965 25.1 10.768 33.38c4.003 6.898 6.093 10.768 6.093 16.604c0 12.594-21.786 17.143-26.154 17.927m15.693-67.911c0-10.106 2.851-19.793 8.467-28.792a3.19 3.19 0 0 0-.233-3.72a1524 1524 0 0 1-5.015-6.172a3.2 3.2 0 0 0-4.035-.79c-7.881 4.357-16.102 6.565-24.441 6.565c-10.061 0-18.852-2.705-26.877-8.265a3.2 3.2 0 0 0-3.645 0c-8.026 5.56-16.816 8.265-26.877 8.265c-8.339 0-16.56-2.208-24.441-6.565a3.2 3.2 0 0 0-4.036.79a1464 1464 0 0 1-5.014 6.172a3.19 3.19 0 0 0-.234 3.72c5.62 8.999 8.468 18.686 8.468 28.792c0 13.09-5.488 22.55-9.898 30.162c-4.32 7.433-6.963 12.37-6.963 19.822c0 17.245 24.051 22.908 31.424 24.23c15.552 2.795 29.133 9.386 37.785 14.422a3.19 3.19 0 0 0 3.22 0c8.652-5.036 22.23-11.627 37.782-14.422c7.373-1.322 31.424-6.985 31.424-24.23c0-7.452-2.643-12.389-6.963-19.832c-4.41-7.603-9.898-17.062-9.898-30.152m-12.374 86.404c-19.62 3.528-36.067 14.08-41.581 17.943c-5.517-3.864-21.965-14.415-41.584-17.943c-38.618-6.937-41.616-29.63-41.616-36.42c0-11.17 4.387-18.727 8.63-26.042c4.045-6.97 8.228-14.178 8.228-23.942c0-15.424-8.906-26.317-13.3-30.751c4.621-5.621 16.295-19.854 22.052-27.271C79.133 56.309 89.274 60.8 99.3 60.8c11.129 0 20.332-4.53 28.7-14.195c8.365 9.665 17.568 14.195 28.698 14.195c10.025 0 20.166-4.492 28.892-12.725c5.757 7.417 17.428 21.65 22.048 27.271c-4.393 4.434-13.299 15.327-13.299 30.751c0 9.764 4.186 16.973 8.227 23.942c4.247 7.315 8.634 14.873 8.634 26.042c0 6.79-3.002 29.483-41.62 36.42m38.522-65.673c-3.952-6.812-7.363-12.693-7.363-20.731c0-16.922 13.171-27.867 13.3-27.97a3.23 3.23 0 0 0 1.174-2.17a3.2 3.2 0 0 0-.717-2.359c-.214-.256-21.19-25.687-25.997-32.275a3.2 3.2 0 0 0-2.39-1.309a3.15 3.15 0 0 0-2.531 1.008c-8.064 8.625-17.607 13.375-26.88 13.375c-10.253 0-18.317-4.568-26.157-14.812c-1.213-1.581-3.869-1.581-5.082 0c-7.843 10.244-15.907 14.812-26.16 14.812c-9.273 0-18.816-4.75-26.88-13.375c-.653-.697-1.58-1.094-2.531-1.008a3.2 3.2 0 0 0-2.39 1.31C62.69 47.911 41.715 73.342 41.5 73.598a3.2 3.2 0 0 0-.71 2.356c.083.849.502 1.63 1.161 2.167c.134.11 13.306 11.054 13.306 27.976c0 8.038-3.412 13.919-7.364 20.731c-4.45 7.67-9.494 16.362-9.494 29.253c0 21.477 17.526 37.448 46.886 42.724c22.103 3.972 40.583 17.99 40.765 18.135a3.2 3.2 0 0 0 3.898-.004c.185-.14 18.601-14.15 40.761-18.131c29.36-5.276 46.89-21.247 46.89-42.724c0-12.891-5.046-21.583-9.498-29.253" fill="#FFF"></path></svg></g></g></g><g transform="translate(1141.8412507632665,96.01789539879064)" class="architecture-service"><g transform="translate(40, 80)" text-anchor="middle" dominant-baseline="middle" alignment-baseline="middle" dy="1em"><g><rect style="stroke: none" class="background"></rect><text style="" y="-10.1"><tspan dy="1.1em" y="-0.1em" x="0" class="text-outer-tspan"><tspan font-weight="normal" class="text-inner-tspan" font-style="normal">Cloud</tspan><tspan font-weight="normal" class="text-inner-tspan" font-style="normal"> Front</tspan></tspan></text></g></g><g><g><svg viewBox="0 0 256 256" height="80" width="80" xmlns="http://www.w3.org/2000/svg"><defs><linearGradient y2="0%" y1="100%" x2="100%" x1="0%" id="IconifyId193635a1cb6760dde1"><stop stop-color="#4D27A8" offset="0%"></stop><stop stop-color="#A166FF" offset="100%"></stop></linearGradient></defs><path d="M0 0h256v256H0z" fill="url(#IconifyId193635a1cb6760dde1)"></path><path d="M176.39 166.794c0-5.293-4.307-9.6-9.6-9.6s-9.6 4.307-9.6 9.6s4.308 9.6 9.6 9.6c5.293 0 9.6-4.308 9.6-9.6m6.4 0c0 8.822-7.177 16-16 16c-8.822 0-16-7.178-16-16c0-8.823 7.178-16 16-16c8.823 0 16 7.177 16 16m-85.536-46.18c0-5.292-4.307-9.6-9.6-9.6c-5.296 0-9.6 4.308-9.6 9.6c0 5.293 4.304 9.6 9.6 9.6c5.293 0 9.6-4.307 9.6-9.6m6.4 0c0 8.823-7.18 16-16 16c-8.822 0-16-7.177-16-16c0-8.822 7.178-16 16-16c8.82 0 16 7.178 16 16m23.482-50.192c0 5.293 4.307 9.6 9.6 9.6c5.296 0 9.6-4.307 9.6-9.6c0-5.296-4.304-9.6-9.6-9.6c-5.293 0-9.6 4.304-9.6 9.6m-6.4 0c0-8.822 7.18-16 16-16c8.822 0 16 7.178 16 16c0 8.823-7.178 16-16 16c-8.82 0-16-7.177-16-16M211.2 128c0-29.674-15.91-57.126-41.562-71.971c-4.598.928-9.046 2.198-14.595 4.205l-2.176-6.02a131 131 0 0 1 7.984-2.61A83 83 0 0 0 128 44.8c-5.405 0-10.723.56-15.92 1.574c3.763 2.202 7.1 4.397 10.342 6.855l-3.868 5.097c-4.57-3.462-9.306-6.396-15.524-9.654c-31.42 9.882-54.05 37.594-57.644 70.138c6.588-1.335 12.915-2.061 19.939-2.234l.157 6.397c-7.36.182-13.684.963-20.596 2.483c-.028.848-.086 1.706-.086 2.544c0 27.706 13.706 53.235 36.246 68.63c-4.01-11.939-6.006-23.222-6.006-34.243c0-6.285 1.082-11.446 2.224-16.909c.266-1.264.534-2.55.797-3.884l6.281 1.238c-.268 1.357-.544 2.672-.812 3.962c-1.12 5.35-2.09 9.97-2.09 15.593c0 12.506 2.746 25.437 8.333 39.479c11.9 6.179 24.752 9.334 38.227 9.334c8.82 0 17.427-1.408 25.638-4.115c3.223-6.359 5.613-12.359 7.61-19.248l6.147 1.782a114 114 0 0 1-5.126 14.147c5.165-2.323 10.051-5.196 14.637-8.55c-1.104-2.707-2.288-5.398-3.597-8.02l5.725-2.863c1.113 2.227 2.134 4.505 3.11 6.797C200.656 175.28 211.2 152.512 211.2 128m6.4 0c0 27.926-12.691 53.757-34.813 70.877c-5.478 4.256-11.42 7.789-17.702 10.633c-2.666 1.21-5.38 2.33-8.17 3.27c-9.216 3.198-18.953 4.82-28.915 4.82c-14.72 0-29.338-3.667-42.278-10.605C56.534 191.38 38.4 161.11 38.4 128c0-2.195.058-3.866.189-5.411c2.179-37.389 27.83-69.75 63.814-80.458C110.598 39.658 119.216 38.4 128 38.4c15.386 0 30.525 3.962 43.789 11.453C200.042 65.68 217.6 95.629 217.6 128m-98.195-46.518l-4.205-4.823c-7.174 6.26-12.755 12.906-19.274 22.944l5.37 3.485c6.17-9.507 11.418-15.766 18.109-21.606m-9.725 41.484l-2.08 6.052c14.698 5.046 27.52 13.097 40.349 25.337l4.419-4.63c-13.523-12.9-27.088-21.402-42.688-26.759m42.787-37.628c12.007 18.31 18.768 38.41 20.093 59.744l-6.387.396c-1.258-20.21-7.667-39.264-19.053-56.63z" fill="#FFF"></path></svg></g></g></g><g transform="translate(1263.9045412188852,96.01789539879064)" class="architecture-service"><g transform="translate(40, 80)" text-anchor="middle" dominant-baseline="middle" alignment-baseline="middle" dy="1em"><g><rect style="stroke: none" class="background"></rect><text style="" y="-10.1"><tspan dy="1.1em" y="-0.1em" x="0" class="text-outer-tspan"><tspan font-weight="normal" class="text-inner-tspan" font-style="normal">Elastic</tspan><tspan font-weight="normal" class="text-inner-tspan" font-style="normal"> Load</tspan></tspan><tspan dy="1.1em" y="1em" x="0" class="text-outer-tspan"><tspan font-weight="normal" class="text-inner-tspan" font-style="normal">Balancing</tspan></tspan></text></g></g><g><g><svg viewBox="0 0 256 256" height="80" width="80" xmlns="http://www.w3.org/2000/svg"><defs><linearGradient y2="0%" y1="100%" x2="100%" x1="0%" id="IconifyId193635a1cb6760dde2"><stop stop-color="#4D27A8" offset="0%"></stop><stop stop-color="#A166FF" offset="100%"></stop></linearGradient></defs><path d="M0 0h256v256H0z" fill="url(#IconifyId193635a1cb6760dde2)"></path><path d="M96 169.6c-22.938 0-41.6-18.662-41.6-41.6S73.062 86.4 96 86.4s41.6 18.662 41.6 41.6s-18.662 41.6-41.6 41.6m96 19.2c0 7.06-5.74 12.8-12.8 12.8s-12.8-5.74-12.8-12.8s5.74-12.8 12.8-12.8s12.8 5.74 12.8 12.8M179.2 54.4c7.06 0 12.8 5.74 12.8 12.8S186.26 80 179.2 80s-12.8-5.74-12.8-12.8s5.74-12.8 12.8-12.8m9.6 60.8c7.06 0 12.8 5.74 12.8 12.8s-5.74 12.8-12.8 12.8S176 135.06 176 128s5.74-12.8 12.8-12.8m-44.963 16h26.051c1.53 9.066 9.418 16 18.912 16c10.589 0 19.2-8.611 19.2-19.2s-8.611-19.2-19.2-19.2c-9.494 0-17.382 6.934-18.912 16h-26.051a47.5 47.5 0 0 0-4.407-17.107l28.397-25.06c3.187 2.356 7.114 3.767 11.373 3.767c10.589 0 19.2-8.611 19.2-19.2S189.789 48 179.2 48S160 56.611 160 67.2c0 4.02 1.245 7.747 3.363 10.835L136.26 101.95C127.693 88.762 112.867 80 96 80c-26.467 0-48 21.533-48 48s21.533 48 48 48c16.867 0 31.693-8.762 40.26-21.949l27.103 23.914A19.1 19.1 0 0 0 160 188.8c0 10.589 8.611 19.2 19.2 19.2s19.2-8.611 19.2-19.2s-8.611-19.2-19.2-19.2c-4.26 0-8.186 1.411-11.373 3.766l-28.397-25.059a47.5 47.5 0 0 0 4.407-17.107" fill="#FFF"></path></svg></g></g></g><g transform="translate(1404.0904514375757,-182.0178953987902)" class="architecture-service"><g transform="translate(40, 80)" text-anchor="middle" dominant-baseline="middle" alignment-baseline="middle" dy="1em"><g><rect style="stroke: none" class="background"></rect><text style="" y="-10.1"><tspan dy="1.1em" y="-0.1em" x="0" class="text-outer-tspan"><tspan font-weight="normal" class="text-inner-tspan" font-style="normal">EC2</tspan></tspan></text></g></g><g><g><svg viewBox="0 0 256 256" height="80" width="80" xmlns="http://www.w3.org/2000/svg"><defs><linearGradient y2="0%" y1="100%" x2="100%" x1="0%" id="IconifyId193635a1cb6760dde3"><stop stop-color="#C8511B" offset="0%"></stop><stop stop-color="#F90" offset="100%"></stop></linearGradient></defs><path d="M0 0h256v256H0z" fill="url(#IconifyId193635a1cb6760dde3)"></path><path d="M86.4 169.6h80v-80h-80zm86.4-80h12.8V96h-12.8v12.8h12.8v6.4h-12.8v9.6h12.8v6.4h-12.8V144h12.8v6.4h-12.8v12.8h12.8v6.4h-12.8v.435a5.97 5.97 0 0 1-5.965 5.965h-.435v12.8H160V176h-12.8v12.8h-6.4V176h-9.6v12.8h-6.4V176H112v12.8h-6.4V176H92.8v12.8h-6.4V176h-.435A5.97 5.97 0 0 1 80 170.035v-.435h-9.6v-6.4H80v-12.8h-9.6V144H80v-12.8h-9.6v-6.4H80v-9.6h-9.6v-6.4H80V96h-9.6v-6.4H80v-.435a5.97 5.97 0 0 1 5.965-5.965h.435V70.4h6.4v12.8h12.8V70.4h6.4v12.8h12.8V70.4h6.4v12.8h9.6V70.4h6.4v12.8H160V70.4h6.4v12.8h.435a5.97 5.97 0 0 1 5.965 5.965zm-41.6 121.203a.4.4 0 0 1-.397.397H45.197a.4.4 0 0 1-.397-.397v-85.606a.4.4 0 0 1 .397-.397H64v-6.4H45.197a6.805 6.805 0 0 0-6.797 6.797v85.606a6.805 6.805 0 0 0 6.797 6.797h85.606a6.805 6.805 0 0 0 6.797-6.797V195.2h-6.4zm86.4-165.606v85.606a6.805 6.805 0 0 1-6.797 6.797H192v-6.4h18.803a.4.4 0 0 0 .397-.397V45.197a.4.4 0 0 0-.397-.397h-85.606a.4.4 0 0 0-.397.397V64h-6.4V45.197a6.805 6.805 0 0 1 6.797-6.797h85.606a6.805 6.805 0 0 1 6.797 6.797" fill="#FFF"></path></svg></g></g></g><g transform="translate(1404.0904514375757,216.01789539879064)" class="architecture-service"><g transform="translate(40, 80)" text-anchor="middle" dominant-baseline="middle" alignment-baseline="middle" dy="1em"><g><rect style="stroke: none" class="background"></rect><text style="" y="-10.1"><tspan dy="1.1em" y="-0.1em" x="0" class="text-outer-tspan"><tspan font-weight="normal" class="text-inner-tspan" font-style="normal">EC2</tspan></tspan></text></g></g><g><g><svg viewBox="0 0 256 256" height="80" width="80" xmlns="http://www.w3.org/2000/svg"><defs><linearGradient y2="0%" y1="100%" x2="100%" x1="0%" id="IconifyId193635a1cb6760dde4"><stop stop-color="#C8511B" offset="0%"></stop><stop stop-color="#F90" offset="100%"></stop></linearGradient></defs><path d="M0 0h256v256H0z" fill="url(#IconifyId193635a1cb6760dde4)"></path><path d="M86.4 169.6h80v-80h-80zm86.4-80h12.8V96h-12.8v12.8h12.8v6.4h-12.8v9.6h12.8v6.4h-12.8V144h12.8v6.4h-12.8v12.8h12.8v6.4h-12.8v.435a5.97 5.97 0 0 1-5.965 5.965h-.435v12.8H160V176h-12.8v12.8h-6.4V176h-9.6v12.8h-6.4V176H112v12.8h-6.4V176H92.8v12.8h-6.4V176h-.435A5.97 5.97 0 0 1 80 170.035v-.435h-9.6v-6.4H80v-12.8h-9.6V144H80v-12.8h-9.6v-6.4H80v-9.6h-9.6v-6.4H80V96h-9.6v-6.4H80v-.435a5.97 5.97 0 0 1 5.965-5.965h.435V70.4h6.4v12.8h12.8V70.4h6.4v12.8h12.8V70.4h6.4v12.8h9.6V70.4h6.4v12.8H160V70.4h6.4v12.8h.435a5.97 5.97 0 0 1 5.965 5.965zm-41.6 121.203a.4.4 0 0 1-.397.397H45.197a.4.4 0 0 1-.397-.397v-85.606a.4.4 0 0 1 .397-.397H64v-6.4H45.197a6.805 6.805 0 0 0-6.797 6.797v85.606a6.805 6.805 0 0 0 6.797 6.797h85.606a6.805 6.805 0 0 0 6.797-6.797V195.2h-6.4zm86.4-165.606v85.606a6.805 6.805 0 0 1-6.797 6.797H192v-6.4h18.803a.4.4 0 0 0 .397-.397V45.197a.4.4 0 0 0-.397-.397h-85.606a.4.4 0 0 0-.397.397V64h-6.4V45.197a6.805 6.805 0 0 1 6.797-6.797h85.606a6.805 6.805 0 0 1 6.797 6.797" fill="#FFF"></path></svg></g></g></g><g transform="translate(1809.1302379703075,-182.0178953987902)" class="architecture-service"><g transform="translate(40, 80)" text-anchor="middle" dominant-baseline="middle" alignment-baseline="middle" dy="1em"><g><rect style="stroke: none" class="background"></rect><text style="" y="-10.1"><tspan dy="1.1em" y="-0.1em" x="0" class="text-outer-tspan"><tspan font-weight="normal" class="text-inner-tspan" font-style="normal">EC2</tspan></tspan></text></g></g><g><g><svg viewBox="0 0 256 256" height="80" width="80" xmlns="http://www.w3.org/2000/svg"><defs><linearGradient y2="0%" y1="100%" x2="100%" x1="0%" id="IconifyId193635a1cb6760dde5"><stop stop-color="#C8511B" offset="0%"></stop><stop stop-color="#F90" offset="100%"></stop></linearGradient></defs><path d="M0 0h256v256H0z" fill="url(#IconifyId193635a1cb6760dde5)"></path><path d="M86.4 169.6h80v-80h-80zm86.4-80h12.8V96h-12.8v12.8h12.8v6.4h-12.8v9.6h12.8v6.4h-12.8V144h12.8v6.4h-12.8v12.8h12.8v6.4h-12.8v.435a5.97 5.97 0 0 1-5.965 5.965h-.435v12.8H160V176h-12.8v12.8h-6.4V176h-9.6v12.8h-6.4V176H112v12.8h-6.4V176H92.8v12.8h-6.4V176h-.435A5.97 5.97 0 0 1 80 170.035v-.435h-9.6v-6.4H80v-12.8h-9.6V144H80v-12.8h-9.6v-6.4H80v-9.6h-9.6v-6.4H80V96h-9.6v-6.4H80v-.435a5.97 5.97 0 0 1 5.965-5.965h.435V70.4h6.4v12.8h12.8V70.4h6.4v12.8h12.8V70.4h6.4v12.8h9.6V70.4h6.4v12.8H160V70.4h6.4v12.8h.435a5.97 5.97 0 0 1 5.965 5.965zm-41.6 121.203a.4.4 0 0 1-.397.397H45.197a.4.4 0 0 1-.397-.397v-85.606a.4.4 0 0 1 .397-.397H64v-6.4H45.197a6.805 6.805 0 0 0-6.797 6.797v85.606a6.805 6.805 0 0 0 6.797 6.797h85.606a6.805 6.805 0 0 0 6.797-6.797V195.2h-6.4zm86.4-165.606v85.606a6.805 6.805 0 0 1-6.797 6.797H192v-6.4h18.803a.4.4 0 0 0 .397-.397V45.197a.4.4 0 0 0-.397-.397h-85.606a.4.4 0 0 0-.397.397V64h-6.4V45.197a6.805 6.805 0 0 1 6.797-6.797h85.606a6.805 6.805 0 0 1 6.797 6.797" fill="#FFF"></path></svg></g></g></g><g transform="translate(1809.1302379703075,216.01789539879064)" class="architecture-service"><g transform="translate(40, 80)" text-anchor="middle" dominant-baseline="middle" alignment-baseline="middle" dy="1em"><g><rect style="stroke: none" class="background"></rect><text style="" y="-10.1"><tspan dy="1.1em" y="-0.1em" x="0" class="text-outer-tspan"><tspan font-weight="normal" class="text-inner-tspan" font-style="normal">EC2</tspan></tspan></text></g></g><g><g><svg viewBox="0 0 256 256" height="80" width="80" xmlns="http://www.w3.org/2000/svg"><defs><linearGradient y2="0%" y1="100%" x2="100%" x1="0%" id="IconifyId193635a1cb6760dde6"><stop stop-color="#C8511B" offset="0%"></stop><stop stop-color="#F90" offset="100%"></stop></linearGradient></defs><path d="M0 0h256v256H0z" fill="url(#IconifyId193635a1cb6760dde6)"></path><path d="M86.4 169.6h80v-80h-80zm86.4-80h12.8V96h-12.8v12.8h12.8v6.4h-12.8v9.6h12.8v6.4h-12.8V144h12.8v6.4h-12.8v12.8h12.8v6.4h-12.8v.435a5.97 5.97 0 0 1-5.965 5.965h-.435v12.8H160V176h-12.8v12.8h-6.4V176h-9.6v12.8h-6.4V176H112v12.8h-6.4V176H92.8v12.8h-6.4V176h-.435A5.97 5.97 0 0 1 80 170.035v-.435h-9.6v-6.4H80v-12.8h-9.6V144H80v-12.8h-9.6v-6.4H80v-9.6h-9.6v-6.4H80V96h-9.6v-6.4H80v-.435a5.97 5.97 0 0 1 5.965-5.965h.435V70.4h6.4v12.8h12.8V70.4h6.4v12.8h12.8V70.4h6.4v12.8h9.6V70.4h6.4v12.8H160V70.4h6.4v12.8h.435a5.97 5.97 0 0 1 5.965 5.965zm-41.6 121.203a.4.4 0 0 1-.397.397H45.197a.4.4 0 0 1-.397-.397v-85.606a.4.4 0 0 1 .397-.397H64v-6.4H45.197a6.805 6.805 0 0 0-6.797 6.797v85.606a6.805 6.805 0 0 0 6.797 6.797h85.606a6.805 6.805 0 0 0 6.797-6.797V195.2h-6.4zm86.4-165.606v85.606a6.805 6.805 0 0 1-6.797 6.797H192v-6.4h18.803a.4.4 0 0 0 .397-.397V45.197a.4.4 0 0 0-.397-.397h-85.606a.4.4 0 0 0-.397.397V64h-6.4V45.197a6.805 6.805 0 0 1 6.797-6.797h85.606a6.805 6.805 0 0 1 6.797 6.797" fill="#FFF"></path></svg></g></g></g><g transform="translate(2022.7653341743644,96.01789539879064)" class="architecture-service"><g transform="translate(40, 80)" text-anchor="middle" dominant-baseline="middle" alignment-baseline="middle" dy="1em"><g><rect style="stroke: none" class="background"></rect><text style="" y="-10.1"><tspan dy="1.1em" y="-0.1em" x="0" class="text-outer-tspan"><tspan font-weight="normal" class="text-inner-tspan" font-style="normal">Database</tspan></tspan></text></g></g><g><g><svg viewBox="0 0 256 256" height="80" width="80" xmlns="http://www.w3.org/2000/svg"><defs><linearGradient y2="0%" y1="100%" x2="100%" x1="0%" id="IconifyId193635a1cb6760dde7"><stop stop-color="#2E27AD" offset="0%"></stop><stop stop-color="#527FFF" offset="100%"></stop></linearGradient></defs><path d="M0 0h256v256H0z" fill="url(#IconifyId193635a1cb6760dde7)"></path><path d="m49.325 44.8l29.737 29.738l-4.524 4.524L44.8 49.325V73.6h-6.4v-32a3.2 3.2 0 0 1 3.2-3.2h32v6.4zM217.6 41.6v32h-6.4V49.325l-29.738 29.737l-4.524-4.524L206.675 44.8H182.4v-6.4h32a3.2 3.2 0 0 1 3.2 3.2m-6.4 140.8h6.4v32a3.2 3.2 0 0 1-3.2 3.2h-32v-6.4h24.275l-29.737-29.738l4.524-4.524l29.738 29.737zm-1.6-56.918c0-10.621-12.262-21.114-32.8-28.068l2.051-6.06C202.458 99.344 216 111.782 216 125.482c0 13.702-13.542 26.144-37.152 34.13l-2.051-6.063c20.54-6.95 32.803-17.44 32.803-28.067m-163.02 0c0 10.176 11.478 20.39 30.706 27.328l-2.172 6.019c-22.202-8.01-34.935-20.163-34.935-33.347c0-13.181 12.733-25.335 34.935-33.348l2.172 6.02c-19.228 6.94-30.707 17.155-30.707 27.328m32.482 55.98L49.325 211.2H73.6v6.4h-32a3.2 3.2 0 0 1-3.2-3.2v-32h6.4v24.275l29.738-29.737zM128 100.115c-22.867 0-35.2-5.907-35.2-8.32c0-2.416 12.333-8.32 35.2-8.32c22.864 0 35.2 5.904 35.2 8.32c0 2.413-12.336 8.32-35.2 8.32m.093 24.784c-21.895 0-35.293-5.98-35.293-9.235v-15.555c7.882 4.349 21.862 6.406 35.2 6.406s27.318-2.057 35.2-6.406v15.555c0 3.258-13.328 9.235-35.107 9.235m0 24.435c-21.895 0-35.293-5.98-35.293-9.235v-15.74c7.78 4.572 21.574 6.94 35.293 6.94c13.641 0 27.357-2.365 35.107-6.925V140.1c0 3.258-13.328 9.235-35.107 9.235M128 171.258c-22.774 0-35.2-6.122-35.2-9.268v-13.196c7.78 4.572 21.574 6.94 35.293 6.94c13.641 0 27.357-2.361 35.107-6.924v13.18c0 3.146-12.426 9.268-35.2 9.268m0-94.183c-20.035 0-41.6 4.605-41.6 14.72v70.195c0 10.285 20.928 15.668 41.6 15.668s41.6-5.383 41.6-15.668V91.795c0-10.115-21.565-14.72-41.6-14.72" fill="#FFF"></path></svg></g></g></g><g transform="translate(-2138.2653341743644,96.01789539879064)" class="architecture-junction"><g><rect height="80" width="80" fill-opacity="0" id="node-junctionDevices"></rect></g></g><g transform="translate(1404.0904514375757,96.01789539879064)" class="architecture-junction"><g><rect height="80" width="80" fill-opacity="0" id="node-junctionLeft"></rect></g></g><g transform="translate(1809.1302379703075,96.01789539879064)" class="architecture-junction"><g><rect height="80" width="80" fill-opacity="0" id="node-junctionRight"></rect></g></g></g><g class="architecture-groups"><rect class="node-bkg" height="182" width="382.76271189732734" y="53.51789539879064" x="-1805.510422758313"></rect><g><g transform="translate(-1804.510422758313, 54.51789539879064)"><g><svg viewBox="0 0 256 256" height="30" width="30" xmlns="http://www.w3.org/2000/svg"><g fill="none"><rect rx="60" fill="#242938" height="256" width="256"></rect><path d="M128.001 30C72.779 30 28 74.77 28 130.001c0 44.183 28.653 81.667 68.387 94.89c4.997.926 6.832-2.169 6.832-4.81c0-2.385-.093-10.262-.136-18.618c-27.82 6.049-33.69-11.799-33.69-11.799c-4.55-11.559-11.104-14.632-11.104-14.632c-9.073-6.207.684-6.079.684-6.079c10.042.705 15.33 10.305 15.33 10.305c8.919 15.288 23.394 10.868 29.1 8.313c.898-6.464 3.489-10.875 6.349-13.372c-22.211-2.529-45.56-11.104-45.56-49.421c0-10.918 3.906-19.839 10.303-26.842c-1.039-2.519-4.462-12.69.968-26.464c0 0 8.398-2.687 27.508 10.25c7.977-2.215 16.531-3.326 25.03-3.364c8.498.038 17.06 1.149 25.051 3.365c19.087-12.939 27.473-10.25 27.473-10.25c5.443 13.773 2.019 23.945.98 26.463c6.412 7.003 10.292 15.924 10.292 26.842c0 38.409-23.394 46.866-45.662 49.341c3.587 3.104 6.783 9.189 6.783 18.519c0 13.38-.116 24.149-.116 27.443c0 2.661 1.8 5.779 6.869 4.797C199.383 211.64 228 174.169 228 130.001C228 74.771 183.227 30 128.001 30M65.454 172.453c-.22.497-1.002.646-1.714.305c-.726-.326-1.133-1.004-.898-1.502c.215-.512.999-.654 1.722-.311c.727.326 1.141 1.01.89 1.508m4.919 4.389c-.477.443-1.41.237-2.042-.462c-.654-.697-.777-1.629-.293-2.078c.491-.442 1.396-.235 2.051.462c.654.706.782 1.631.284 2.078m3.374 5.616c-.613.426-1.615.027-2.234-.863c-.613-.889-.613-1.955.013-2.383c.621-.427 1.608-.043 2.236.84c.611.904.611 1.971-.015 2.406m5.707 6.504c-.548.604-1.715.442-2.57-.383c-.874-.806-1.118-1.95-.568-2.555c.555-.606 1.729-.435 2.59.383c.868.804 1.133 1.957.548 2.555m7.376 2.195c-.242.784-1.366 1.14-2.499.807c-1.13-.343-1.871-1.26-1.642-2.052c.235-.788 1.364-1.159 2.505-.803c1.13.341 1.871 1.252 1.636 2.048m8.394.932c.028.824-.932 1.508-2.121 1.523c-1.196.027-2.163-.641-2.176-1.452c0-.833.939-1.51 2.134-1.53c1.19-.023 2.163.639 2.163 1.459m8.246-.316c.143.804-.683 1.631-1.864 1.851c-1.161.212-2.236-.285-2.383-1.083c-.144-.825.697-1.651 1.856-1.865c1.183-.205 2.241.279 2.391 1.097" fill="#fff"></path></g></svg></g></g><g transform="translate(-1771.510422758313, 60.51789539879064)" text-anchor="start" dominant-baseline="start" alignment-baseline="middle" dy="1em"><g><rect style="stroke: none" class="background"></rect><text style="" y="-10.1"><tspan dy="1.1em" y="-0.1em" x="0" class="text-outer-tspan"><tspan font-weight="normal" class="text-inner-tspan" font-style="normal">Github</tspan></tspan></text></g></g></g><rect class="node-bkg" height="829.0357907975808" width="1248.9240834110979" y="-349.0178953987902" x="979.3412507632665"></rect><g><g transform="translate(980.3412507632665, -348.0178953987902)"><g><svg viewBox="0 0 256 256" height="30" width="30" xmlns="http://www.w3.org/2000/svg"><g fill="none"><rect rx="60" fill="#242938" height="256" width="256"></rect><path d="M84.745 111.961c0 2.434.263 4.407.723 5.855a35 35 0 0 0 2.106 4.737c.329.526.46 1.052.46 1.513c0 .658-.395 1.316-1.25 1.973l-4.145 2.764c-.592.394-1.184.592-1.71.592c-.658 0-1.316-.329-1.974-.921a20.4 20.4 0 0 1-2.368-3.092a51 51 0 0 1-2.04-3.882q-7.697 9.08-19.342 9.079c-5.526 0-9.934-1.579-13.158-4.737c-3.223-3.158-4.868-7.368-4.868-12.631c0-5.593 1.974-10.132 5.987-13.553s9.342-5.132 16.118-5.132c2.237 0 4.54.198 6.974.527s4.934.855 7.566 1.447v-4.803c0-5-1.053-8.487-3.092-10.526c-2.106-2.04-5.658-3.026-10.724-3.026c-2.303 0-4.671.263-7.105.855s-4.803 1.316-7.106 2.237a19 19 0 0 1-2.302.855c-.46.132-.79.198-1.053.198c-.92 0-1.382-.658-1.382-2.04v-3.224c0-1.052.132-1.842.461-2.302s.921-.921 1.842-1.382q3.454-1.776 8.29-2.96c3.223-.856 6.644-1.25 10.263-1.25c7.829 0 13.552 1.776 17.237 5.328c3.618 3.553 5.46 8.948 5.46 16.185v21.316zm-26.71 10c2.17 0 4.407-.395 6.776-1.185c2.368-.789 4.473-2.237 6.25-4.21c1.052-1.25 1.842-2.632 2.236-4.211s.658-3.487.658-5.723v-2.764a55 55 0 0 0-6.052-1.118a50 50 0 0 0-6.185-.395c-4.408 0-7.631.856-9.802 2.632s-3.224 4.276-3.224 7.566c0 3.092.79 5.394 2.434 6.973c1.58 1.645 3.882 2.435 6.908 2.435m52.828 7.105c-1.184 0-1.974-.198-2.5-.658c-.526-.395-.987-1.316-1.381-2.566l-15.46-50.855c-.396-1.316-.593-2.171-.593-2.632c0-1.052.526-1.645 1.579-1.645h6.447c1.25 0 2.106.198 2.566.658c.526.395.921 1.316 1.316 2.566l11.052 43.553l10.264-43.553c.329-1.316.723-2.17 1.25-2.566c.526-.394 1.447-.657 2.631-.657h5.263c1.25 0 2.106.197 2.632.657c.526.395.987 1.316 1.25 2.566l10.395 44.079l11.381-44.079c.395-1.316.856-2.17 1.316-2.566c.526-.394 1.382-.657 2.566-.657h6.118c1.053 0 1.645.526 1.645 1.644c0 .33-.066.658-.132 1.053c-.065.395-.197.92-.46 1.645l-15.855 50.855q-.593 1.974-1.382 2.566c-.526.394-1.382.658-2.5.658h-5.658c-1.25 0-2.105-.198-2.631-.658c-.527-.461-.987-1.316-1.25-2.632l-10.198-42.434l-10.131 42.368c-.329 1.316-.724 2.171-1.25 2.632c-.527.46-1.448.658-2.632.658zm84.54 1.776c-3.421 0-6.842-.395-10.132-1.184c-3.289-.79-5.855-1.645-7.566-2.632c-1.052-.592-1.776-1.25-2.039-1.842a4.65 4.65 0 0 1-.395-1.842v-3.355c0-1.382.526-2.04 1.513-2.04q.593 0 1.184.198c.395.131.987.394 1.645.658a35.8 35.8 0 0 0 7.237 2.302a39.5 39.5 0 0 0 7.829.79c4.145 0 7.368-.724 9.605-2.171c2.237-1.448 3.421-3.553 3.421-6.25c0-1.842-.592-3.356-1.776-4.606s-3.421-2.368-6.645-3.421l-9.539-2.96c-4.803-1.513-8.356-3.75-10.527-6.71c-2.171-2.895-3.289-6.12-3.289-9.54q0-4.144 1.776-7.303c1.184-2.105 2.763-3.947 4.737-5.394c1.974-1.514 4.211-2.632 6.842-3.422c2.632-.79 5.395-1.118 8.29-1.118c1.447 0 2.96.066 4.408.263c1.513.197 2.894.46 4.276.724c1.316.329 2.566.658 3.75 1.053q1.776.591 2.763 1.184c.921.526 1.579 1.052 1.974 1.644q.592.79.592 2.172v3.092c0 1.381-.526 2.105-1.513 2.105c-.527 0-1.382-.263-2.5-.79q-5.625-2.565-12.632-2.565c-3.75 0-6.71.592-8.75 1.842s-3.092 3.158-3.092 5.855c0 1.842.658 3.421 1.974 4.671s3.75 2.5 7.237 3.618l9.342 2.96c4.736 1.514 8.158 3.619 10.197 6.317s3.026 5.789 3.026 9.21c0 2.829-.592 5.395-1.71 7.632c-1.184 2.237-2.763 4.21-4.803 5.789c-2.039 1.645-4.474 2.829-7.302 3.685c-2.961.921-6.053 1.381-9.408 1.381" fill="#fff"></path><path clip-rule="evenodd" d="M207.837 162.816c-21.645 15.987-53.092 24.474-80.132 24.474c-37.894 0-72.04-14.014-97.829-37.303c-2.04-1.842-.197-4.342 2.237-2.895c27.895 16.184 62.303 25.987 97.895 25.987c24.013 0 50.395-5 74.671-15.263c3.618-1.645 6.71 2.368 3.158 5" fill-rule="evenodd" fill="#F90"></path><path clip-rule="evenodd" d="M216.85 152.553c-2.763-3.553-18.289-1.711-25.329-.856c-2.105.264-2.434-1.579-.526-2.96c12.368-8.684 32.697-6.184 35.066-3.29c2.368 2.961-.658 23.29-12.237 33.027c-1.777 1.513-3.487.723-2.698-1.25c2.632-6.513 8.487-21.185 5.724-24.671" fill-rule="evenodd" fill="#F90"></path></g></svg></g></g><g transform="translate(1013.3412507632665, -342.0178953987902)" text-anchor="start" dominant-baseline="start" alignment-baseline="middle" dy="1em"><g><rect style="stroke: none" class="background"></rect><text style="" y="-10.1"><tspan dy="1.1em" y="-0.1em" x="0" class="text-outer-tspan"><tspan font-weight="normal" class="text-inner-tspan" font-style="normal">AWS</tspan></tspan></text></g></g></g><rect class="node-bkg" height="746.0357907975808" width="908.1748827367887" y="-307.5178953987902" x="1278.5904514375757"></rect><g><g transform="translate(1279.5904514375757, -306.5178953987902)"><g><svg viewBox="0 0 256 256" height="30" width="30" xmlns="http://www.w3.org/2000/svg"><defs><linearGradient y2="0%" y1="100%" x2="100%" x1="0%" id="IconifyId193635a1cb6760dde8"><stop stop-color="#4D27A8" offset="0%"></stop><stop stop-color="#A166FF" offset="100%"></stop></linearGradient></defs><path d="M0 0h256v256H0z" fill="url(#IconifyId193635a1cb6760dde8)"></path><path d="m195.2 132.39l-17.6-7.04v63.843c5.14-.512 9.283-2.202 12.227-5.19c5.44-5.53 5.376-13.636 5.373-13.716zm-24 56.844V125.35l-17.6 7.04v37.834c.022.662.749 17.142 17.6 19.011m30.4-19.011c.01.362.17 10.71-7.152 18.208c-4.787 4.906-11.536 7.392-20.048 7.392c-21.034 0-26.992-16.698-27.2-25.523v-40.077c0-1.309.797-2.486 2.013-2.973l24-9.6a3.2 3.2 0 0 1 2.374 0l24 9.6a3.2 3.2 0 0 1 2.013 2.973zm9.603-6.291l-.003-42.743l-36.8-14.72l-36.8 14.72v42.634c-.006.291-.432 19.93 11.309 32.013c6.182 6.361 14.758 9.587 25.491 9.587c10.806 0 19.424-3.248 25.613-9.651c11.725-12.135 11.197-31.645 11.19-31.84m-6.589 36.285c-7.44 7.702-17.606 11.606-30.214 11.606c-12.547 0-22.678-3.891-30.112-11.565c-13.629-14.057-13.117-35.625-13.088-36.534v-44.701c0-1.309.797-2.486 2.013-2.973l40-16a3.2 3.2 0 0 1 2.374 0l40 16a3.2 3.2 0 0 1 2.013 2.973v44.8c.029.8.605 22.33-12.986 36.394M73.776 151.023H121.6v6.4H73.776c-19.45 0-34.298-12.966-35.3-30.832c-.07-.73-.076-1.58-.076-2.432c0-21.98 15.37-30.074 24.333-32.922a50 50 0 0 1-.096-3.113c0-17.45 12.448-35.706 28.95-42.464c19.38-7.936 39.811-4.093 54.637 10.262c4.995 4.867 8.803 10.064 11.558 15.789c3.86-3.312 8.519-5.091 13.51-5.091c10.577 0 21.764 8.3 23.687 24.201c6.986 1.76 15.754 5.498 21.943 13.434l-5.044 3.936c-5.702-7.315-14.307-10.362-20.518-11.635a3.19 3.19 0 0 1-2.554-2.944c-.835-14.147-9.664-20.592-17.513-20.592c-4.679 0-8.826 2.208-11.997 6.384a3.16 3.16 0 0 1-3.024 1.232a3.2 3.2 0 0 1-2.528-2.064c-2.454-6.688-6.371-12.595-11.978-18.058c-12.94-12.525-30.803-15.869-47.753-8.931c-14.237 5.83-24.976 21.54-24.976 36.54c0 1.732.099 3.444.3 5.086a3.204 3.204 0 0 1-2.409 3.49c-8.262 2.046-22.128 8.337-22.128 27.46c0 .646-.006 1.296.058 1.946c.812 14.49 12.972 24.918 28.918 24.918" fill="#FFF"></path></svg></g></g><g transform="translate(1312.5904514375757, -300.5178953987902)" text-anchor="start" dominant-baseline="start" alignment-baseline="middle" dy="1em"><g><rect style="stroke: none" class="background"></rect><text style="" y="-10.1"><tspan dy="1.1em" y="-0.1em" x="0" class="text-outer-tspan"><tspan font-weight="normal" class="text-inner-tspan" font-style="normal">VPC</tspan></tspan></text></g></g></g><rect class="node-bkg" height="663.0357907975808" width="653.0397865327318" y="-266.0178953987902" x="1320.0904514375757"></rect><g><g transform="translate(1324.0904514375757, -264.0178953987902)" text-anchor="start" dominant-baseline="start" alignment-baseline="middle" dy="1em"><g><rect style="stroke: none" class="background"></rect><text style="" y="-10.1"><tspan dy="1.1em" y="-0.1em" x="0" class="text-outer-tspan"><tspan font-weight="normal" class="text-inner-tspan" font-style="normal">PUBLIC</tspan></tspan></text></g></g></g><rect class="node-bkg" height="580.0357907975808" width="570.0397865327318" y="-224.5178953987902" x="1361.5904514375757"></rect><g><g transform="translate(1362.5904514375757, -223.5178953987902)"><g><svg viewBox="0 0 80 80" height="30" width="30" xmlns="http://www.w3.org/2000/svg"><g><rect style="fill: #087ebf; stroke-width: 0px;" height="80" width="80"></rect><text style="fill: #fff; font-family: ArialMT, Arial; font-size: 67.75px;" transform="translate(21.16 64.67)"><tspan y="0" x="0">?</tspan></text></g></svg></g></g><g transform="translate(1395.5904514375757, -217.5178953987902)" text-anchor="start" dominant-baseline="start" alignment-baseline="middle" dy="1em"><g><rect style="stroke: none" class="background"></rect><text style="" y="-10.1"><tspan dy="1.1em" y="-0.1em" x="0" class="text-outer-tspan"><tspan font-weight="normal" class="text-inner-tspan" font-style="normal">Auto</tspan><tspan font-weight="normal" class="text-inner-tspan" font-style="normal"> Scaling</tspan><tspan font-weight="normal" class="text-inner-tspan" font-style="normal"> Group</tspan></tspan></text></g></g></g><rect class="node-bkg" height="182" width="165" y="53.51789539879064" x="1980.2653341743644"></rect><g><g transform="translate(1984.2653341743644, 55.51789539879064)" text-anchor="start" dominant-baseline="start" alignment-baseline="middle" dy="1em"><g><rect style="stroke: none" class="background"></rect><text style="" y="-10.1"><tspan dy="1.1em" y="-0.1em" x="0" class="text-outer-tspan"><tspan font-weight="normal" class="text-inner-tspan" font-style="normal">PRIVATE</tspan></tspan></text></g></g></g></g></svg>