<?xml version="1.0" encoding="UTF-8" standalone="no"?>
<!DOCTYPE svg PUBLIC "-//W3C//DTD SVG 1.1//EN"
 "http://www.w3.org/Graphics/SVG/1.1/DTD/svg11.dtd">
<!-- Generated by graphviz version 12.2.0 (20241103.1931)
 -->
<!-- Title: TheTipTop &#45; Architecture Pages: 1 -->
<svg width="1195pt" height="1295pt"
 viewBox="0.00 0.00 1194.80 1294.75" xmlns="http://www.w3.org/2000/svg" xmlns:xlink="http://www.w3.org/1999/xlink">
<g id="graph0" class="graph" transform="scale(1 1) rotate(0) translate(144 1150.75)">
<title>TheTipTop &#45; Architecture</title>
<polygon fill="white" stroke="none" points="-144,144 -144,-1150.75 1050.8,-1150.75 1050.8,144 -144,144"/>
<text text-anchor="middle" x="453.4" y="-5.5" font-family="Sans-Serif" font-size="15.00" fill="#2d3436">TheTipTop &#45; Architecture</text>
<g id="clust1" class="cluster">
<title>cluster_VPC</title>
<path fill="#e5f5fd" stroke="#aeb6be" d="M305.6,-31.75C305.6,-31.75 886.8,-31.75 886.8,-31.75 892.8,-31.75 898.8,-37.75 898.8,-43.75 898.8,-43.75 898.8,-986.75 898.8,-986.75 898.8,-992.75 892.8,-998.75 886.8,-998.75 886.8,-998.75 305.6,-998.75 305.6,-998.75 299.6,-998.75 293.6,-992.75 293.6,-986.75 293.6,-986.75 293.6,-43.75 293.6,-43.75 293.6,-37.75 299.6,-31.75 305.6,-31.75"/>
<text text-anchor="middle" x="314.35" y="-983.35" font-family="Sans-Serif" font-size="12.00" fill="#2d3436">VPC</text>
</g>
<g id="clust2" class="cluster">
<title>cluster_Private subnet</title>
<path fill="#ebf3e7" stroke="#aeb6be" d="M313.6,-39.75C313.6,-39.75 569.2,-39.75 569.2,-39.75 575.2,-39.75 581.2,-45.75 581.2,-51.75 581.2,-51.75 581.2,-957.75 581.2,-957.75 581.2,-963.75 575.2,-969.75 569.2,-969.75 569.2,-969.75 313.6,-969.75 313.6,-969.75 307.6,-969.75 301.6,-963.75 301.6,-957.75 301.6,-957.75 301.6,-51.75 301.6,-51.75 301.6,-45.75 307.6,-39.75 313.6,-39.75"/>
<text text-anchor="middle" x="347.85" y="-954.35" font-family="Sans-Serif" font-size="12.00" fill="#2d3436">Private subnet</text>
</g>
<g id="clust3" class="cluster">
<title>cluster_AutoScalingGroup</title>
<path fill="#ece8f6" stroke="#aeb6be" d="M468.4,-47.75C468.4,-47.75 561.2,-47.75 561.2,-47.75 567.2,-47.75 573.2,-53.75 573.2,-59.75 573.2,-59.75 573.2,-928.75 573.2,-928.75 573.2,-934.75 567.2,-940.75 561.2,-940.75 561.2,-940.75 468.4,-940.75 468.4,-940.75 462.4,-940.75 456.4,-934.75 456.4,-928.75 456.4,-928.75 456.4,-59.75 456.4,-59.75 456.4,-53.75 462.4,-47.75 468.4,-47.75"/>
<text text-anchor="middle" x="513.52" y="-925.35" font-family="Sans-Serif" font-size="12.00" fill="#2d3436">AutoScalingGroup</text>
</g>
<g id="clust4" class="cluster">
<title>cluster_Isolated subnet</title>
<path fill="#ebf3e7" stroke="#aeb6be" d="M615.2,-399.75C615.2,-399.75 878.8,-399.75 878.8,-399.75 884.8,-399.75 890.8,-405.75 890.8,-411.75 890.8,-411.75 890.8,-597.75 890.8,-597.75 890.8,-603.75 884.8,-609.75 878.8,-609.75 878.8,-609.75 615.2,-609.75 615.2,-609.75 609.2,-609.75 603.2,-603.75 603.2,-597.75 603.2,-597.75 603.2,-411.75 603.2,-411.75 603.2,-405.75 609.2,-399.75 615.2,-399.75"/>
<text text-anchor="middle" x="651.7" y="-594.35" font-family="Sans-Serif" font-size="12.00" fill="#2d3436">Isolated subnet</text>
</g>
<g id="clust5" class="cluster">
<title>cluster_DBCluster</title>
<path fill="#ece8f6" stroke="#aeb6be" d="M623.2,-407.75C623.2,-407.75 870.8,-407.75 870.8,-407.75 876.8,-407.75 882.8,-413.75 882.8,-419.75 882.8,-419.75 882.8,-568.75 882.8,-568.75 882.8,-574.75 876.8,-580.75 870.8,-580.75 870.8,-580.75 623.2,-580.75 623.2,-580.75 617.2,-580.75 611.2,-574.75 611.2,-568.75 611.2,-568.75 611.2,-419.75 611.2,-419.75 611.2,-413.75 617.2,-407.75 623.2,-407.75"/>
<text text-anchor="middle" x="646.95" y="-565.35" font-family="Sans-Serif" font-size="12.00" fill="#2d3436">DBCluster</text>
</g>
<!-- 1b58323a80ea42929db5f0dc6d0b803d -->
<g id="node1" class="node">
<title>1b58323a80ea42929db5f0dc6d0b803d</title>
<image xlink:href="/Users/florent/Documents/thetiptop/.venv/lib/python3.13/site-packages/resources/aws/network/route-53.png" width="100.8px" height="100.8px" preserveAspectRatio="xMinYMin meet" x="-2.84217e-14" y="-534.15"/>
<text text-anchor="middle" x="50.4" y="-416.5" font-family="Sans-Serif" font-size="13.00" fill="#2d3436">DNS</text>
</g>
<!-- dab6e89bd6b64a8b8af7a33b08362136 -->
<g id="node2" class="node">
<title>dab6e89bd6b64a8b8af7a33b08362136</title>
<image xlink:href="/Users/florent/Documents/thetiptop/.venv/lib/python3.13/site-packages/resources/aws/network/cloudfront.png" width="100.8px" height="100.8px" preserveAspectRatio="xMinYMin meet" x="154.8" y="-534.15"/>
<text text-anchor="middle" x="205.2" y="-416.5" font-family="Sans-Serif" font-size="13.00" fill="#2d3436">CDN</text>
</g>
<!-- 1b58323a80ea42929db5f0dc6d0b803d&#45;&gt;dab6e89bd6b64a8b8af7a33b08362136 -->
<g id="edge1" class="edge">
<title>1b58323a80ea42929db5f0dc6d0b803d&#45;&gt;dab6e89bd6b64a8b8af7a33b08362136</title>
<path fill="none" stroke="#7b8894" d="M100.66,-483.75C100.66,-483.75 143.41,-483.75 143.41,-483.75"/>
<polygon fill="#7b8894" stroke="#7b8894" points="143.41,-487.25 153.41,-483.75 143.41,-480.25 143.41,-487.25"/>
</g>
<!-- 1ca57579f0424e93b96319d35cc06efd -->
<g id="node3" class="node">
<title>1ca57579f0424e93b96319d35cc06efd</title>
<image xlink:href="/Users/florent/Documents/thetiptop/.venv/lib/python3.13/site-packages/resources/aws/network/elb-network-load-balancer.png" width="100.8px" height="100.8px" preserveAspectRatio="xMinYMin meet" x="309.6" y="-534.15"/>
<text text-anchor="middle" x="360" y="-416.5" font-family="Sans-Serif" font-size="13.00" fill="#2d3436">LoadBalancer</text>
</g>
<!-- dab6e89bd6b64a8b8af7a33b08362136&#45;&gt;1ca57579f0424e93b96319d35cc06efd -->
<g id="edge2" class="edge">
<title>dab6e89bd6b64a8b8af7a33b08362136&#45;&gt;1ca57579f0424e93b96319d35cc06efd</title>
<path fill="none" stroke="#7b8894" d="M255.46,-483.75C255.46,-483.75 298.21,-483.75 298.21,-483.75"/>
<polygon fill="#7b8894" stroke="#7b8894" points="298.21,-487.25 308.21,-483.75 298.21,-480.25 298.21,-487.25"/>
</g>
<!-- f8fb895978ef46299975540394f675b3 -->
<g id="node4" class="node">
<title>f8fb895978ef46299975540394f675b3</title>
<image xlink:href="/Users/florent/Documents/thetiptop/.venv/lib/python3.13/site-packages/resources/aws/compute/ec2.png" width="100.8px" height="100.8px" preserveAspectRatio="xMinYMin meet" x="464.4" y="-174.15"/>
<text text-anchor="middle" x="514.8" y="-56.5" font-family="Sans-Serif" font-size="13.00" fill="#2d3436">worker1</text>
</g>
<!-- 1ca57579f0424e93b96319d35cc06efd&#45;&gt;f8fb895978ef46299975540394f675b3 -->
<g id="edge3" class="edge">
<title>1ca57579f0424e93b96319d35cc06efd&#45;&gt;f8fb895978ef46299975540394f675b3</title>
<path fill="none" stroke="#7b8894" d="M343.2,-415.61C343.2,-311.25 343.2,-123.75 343.2,-123.75 343.2,-123.75 453.19,-123.75 453.19,-123.75"/>
<polygon fill="#7b8894" stroke="#7b8894" points="453.19,-127.25 463.19,-123.75 453.19,-120.25 453.19,-127.25"/>
</g>
<!-- 0563a8704e6345cc933fbd2f571599ff -->
<g id="node5" class="node">
<title>0563a8704e6345cc933fbd2f571599ff</title>
<image xlink:href="/Users/florent/Documents/thetiptop/.venv/lib/python3.13/site-packages/resources/aws/compute/ec2.png" width="100.8px" height="100.8px" preserveAspectRatio="xMinYMin meet" x="464.4" y="-354.15"/>
<text text-anchor="middle" x="514.8" y="-236.5" font-family="Sans-Serif" font-size="13.00" fill="#2d3436">worker2</text>
</g>
<!-- 1ca57579f0424e93b96319d35cc06efd&#45;&gt;0563a8704e6345cc933fbd2f571599ff -->
<g id="edge4" class="edge">
<title>1ca57579f0424e93b96319d35cc06efd&#45;&gt;0563a8704e6345cc933fbd2f571599ff</title>
<path fill="none" stroke="#7b8894" d="M376.8,-415.44C376.8,-364.52 376.8,-303.75 376.8,-303.75 376.8,-303.75 453.07,-303.75 453.07,-303.75"/>
<polygon fill="#7b8894" stroke="#7b8894" points="453.07,-307.25 463.07,-303.75 453.07,-300.25 453.07,-307.25"/>
</g>
<!-- e2253401421d4eddbce5b53dd431a40a -->
<g id="node6" class="node">
<title>e2253401421d4eddbce5b53dd431a40a</title>
<image xlink:href="/Users/florent/Documents/thetiptop/.venv/lib/python3.13/site-packages/resources/aws/compute/ec2.png" width="100.8px" height="100.8px" preserveAspectRatio="xMinYMin meet" x="464.4" y="-534.15"/>
<text text-anchor="middle" x="514.8" y="-416.5" font-family="Sans-Serif" font-size="13.00" fill="#2d3436">worker3</text>
</g>
<!-- 1ca57579f0424e93b96319d35cc06efd&#45;&gt;e2253401421d4eddbce5b53dd431a40a -->
<g id="edge5" class="edge">
<title>1ca57579f0424e93b96319d35cc06efd&#45;&gt;e2253401421d4eddbce5b53dd431a40a</title>
<path fill="none" stroke="#7b8894" d="M410.26,-483.75C410.26,-483.75 453.01,-483.75 453.01,-483.75"/>
<polygon fill="#7b8894" stroke="#7b8894" points="453.01,-487.25 463.01,-483.75 453.01,-480.25 453.01,-487.25"/>
</g>
<!-- 99e43f96174d4c9dba0eff04f05dc548 -->
<g id="node7" class="node">
<title>99e43f96174d4c9dba0eff04f05dc548</title>
<image xlink:href="/Users/florent/Documents/thetiptop/.venv/lib/python3.13/site-packages/resources/aws/compute/ec2.png" width="100.8px" height="100.8px" preserveAspectRatio="xMinYMin meet" x="464.4" y="-714.15"/>
<text text-anchor="middle" x="514.8" y="-596.5" font-family="Sans-Serif" font-size="13.00" fill="#2d3436">worker4</text>
</g>
<!-- 1ca57579f0424e93b96319d35cc06efd&#45;&gt;99e43f96174d4c9dba0eff04f05dc548 -->
<g id="edge6" class="edge">
<title>1ca57579f0424e93b96319d35cc06efd&#45;&gt;99e43f96174d4c9dba0eff04f05dc548</title>
<path fill="none" stroke="#7b8894" d="M376.8,-552.06C376.8,-602.98 376.8,-663.75 376.8,-663.75 376.8,-663.75 453.07,-663.75 453.07,-663.75"/>
<polygon fill="#7b8894" stroke="#7b8894" points="453.07,-667.25 463.07,-663.75 453.07,-660.25 453.07,-667.25"/>
</g>
<!-- 5ecae7f4c2d84c848a36a846e0b51841 -->
<g id="node8" class="node">
<title>5ecae7f4c2d84c848a36a846e0b51841</title>
<image xlink:href="/Users/florent/Documents/thetiptop/.venv/lib/python3.13/site-packages/resources/aws/compute/ec2.png" width="100.8px" height="100.8px" preserveAspectRatio="xMinYMin meet" x="464.4" y="-894.15"/>
<text text-anchor="middle" x="514.8" y="-776.5" font-family="Sans-Serif" font-size="13.00" fill="#2d3436">worker5</text>
</g>
<!-- 1ca57579f0424e93b96319d35cc06efd&#45;&gt;5ecae7f4c2d84c848a36a846e0b51841 -->
<g id="edge7" class="edge">
<title>1ca57579f0424e93b96319d35cc06efd&#45;&gt;5ecae7f4c2d84c848a36a846e0b51841</title>
<path fill="none" stroke="#7b8894" d="M343.2,-551.89C343.2,-656.25 343.2,-843.75 343.2,-843.75 343.2,-843.75 453.19,-843.75 453.19,-843.75"/>
<polygon fill="#7b8894" stroke="#7b8894" points="453.19,-847.25 463.19,-843.75 453.19,-840.25 453.19,-847.25"/>
</g>
<!-- 956fd703a9e74712a1301d6ac71229ce -->
<g id="node9" class="node">
<title>956fd703a9e74712a1301d6ac71229ce</title>
<image xlink:href="/Users/florent/Documents/thetiptop/.venv/lib/python3.13/site-packages/resources/aws/database/rds.png" width="100.8px" height="100.8px" preserveAspectRatio="xMinYMin meet" x="619.2" y="-534.15"/>
<text text-anchor="middle" x="669.6" y="-416.5" font-family="Sans-Serif" font-size="13.00" fill="#2d3436">Databases Write</text>
</g>
<!-- f8fb895978ef46299975540394f675b3&#45;&gt;956fd703a9e74712a1301d6ac71229ce -->
<g id="edge8" class="edge">
<title>f8fb895978ef46299975540394f675b3&#45;&gt;956fd703a9e74712a1301d6ac71229ce</title>
<path fill="none" stroke="#7b8894" d="M564.9,-123.75C615.55,-123.75 686.4,-123.75 686.4,-123.75 686.4,-123.75 686.4,-404.1 686.4,-404.1"/>
<polygon fill="#7b8894" stroke="#7b8894" points="682.9,-404.1 686.4,-414.1 689.9,-404.1 682.9,-404.1"/>
</g>
<!-- 0563a8704e6345cc933fbd2f571599ff&#45;&gt;956fd703a9e74712a1301d6ac71229ce -->
<g id="edge9" class="edge">
<title>0563a8704e6345cc933fbd2f571599ff&#45;&gt;956fd703a9e74712a1301d6ac71229ce</title>
<path fill="none" stroke="#7b8894" d="M565.01,-303.75C604.47,-303.75 652.8,-303.75 652.8,-303.75 652.8,-303.75 652.8,-403.93 652.8,-403.93"/>
<polygon fill="#7b8894" stroke="#7b8894" points="649.3,-403.93 652.8,-413.93 656.3,-403.93 649.3,-403.93"/>
</g>
<!-- e2253401421d4eddbce5b53dd431a40a&#45;&gt;956fd703a9e74712a1301d6ac71229ce -->
<g id="edge10" class="edge">
<title>e2253401421d4eddbce5b53dd431a40a&#45;&gt;956fd703a9e74712a1301d6ac71229ce</title>
<path fill="none" stroke="#7b8894" d="M565.06,-483.75C565.06,-483.75 607.81,-483.75 607.81,-483.75"/>
<polygon fill="#7b8894" stroke="#7b8894" points="607.81,-487.25 617.81,-483.75 607.81,-480.25 607.81,-487.25"/>
</g>
<!-- 99e43f96174d4c9dba0eff04f05dc548&#45;&gt;956fd703a9e74712a1301d6ac71229ce -->
<g id="edge11" class="edge">
<title>99e43f96174d4c9dba0eff04f05dc548&#45;&gt;956fd703a9e74712a1301d6ac71229ce</title>
<path fill="none" stroke="#7b8894" d="M565.01,-663.75C604.47,-663.75 652.8,-663.75 652.8,-663.75 652.8,-663.75 652.8,-563.57 652.8,-563.57"/>
<polygon fill="#7b8894" stroke="#7b8894" points="656.3,-563.57 652.8,-553.57 649.3,-563.57 656.3,-563.57"/>
</g>
<!-- 5ecae7f4c2d84c848a36a846e0b51841&#45;&gt;956fd703a9e74712a1301d6ac71229ce -->
<g id="edge12" class="edge">
<title>5ecae7f4c2d84c848a36a846e0b51841&#45;&gt;956fd703a9e74712a1301d6ac71229ce</title>
<path fill="none" stroke="#7b8894" d="M564.9,-843.75C615.55,-843.75 686.4,-843.75 686.4,-843.75 686.4,-843.75 686.4,-563.4 686.4,-563.4"/>
<polygon fill="#7b8894" stroke="#7b8894" points="689.9,-563.4 686.4,-553.4 682.9,-563.4 689.9,-563.4"/>
</g>
<!-- 2728991a616440269369e0a0db87fb73 -->
<g id="node10" class="node">
<title>2728991a616440269369e0a0db87fb73</title>
<image xlink:href="/Users/florent/Documents/thetiptop/.venv/lib/python3.13/site-packages/resources/aws/database/rds.png" width="100.8px" height="100.8px" preserveAspectRatio="xMinYMin meet" x="774" y="-534.15"/>
<text text-anchor="middle" x="824.4" y="-416.5" font-family="Sans-Serif" font-size="13.00" fill="#2d3436">Databases Read</text>
</g>
<!-- 956fd703a9e74712a1301d6ac71229ce&#45;&gt;2728991a616440269369e0a0db87fb73 -->
<g id="edge13" class="edge">
<title>956fd703a9e74712a1301d6ac71229ce&#45;&gt;2728991a616440269369e0a0db87fb73</title>
<path fill="none" stroke="#7b8894" d="M719.86,-483.75C719.86,-483.75 762.61,-483.75 762.61,-483.75"/>
<polygon fill="#7b8894" stroke="#7b8894" points="762.61,-487.25 772.61,-483.75 762.61,-480.25 762.61,-487.25"/>
</g>
</g>
</svg>
